<?xml version="1.0" encoding="utf-8"?><!DOCTYPE svg PUBLIC "-//W3C//DTD SVG 1.1//EN" "http://www.w3.org/Graphics/SVG/1.1/DTD/svg11.dtd"><svg version="1.1" baseProfile="full" xmlns="http://www.w3.org/2000/svg" xmlns:xlink="http://www.w3.org/1999/xlink" xmlns:ev="http://www.w3.org/2001/xml-events"   height="58px"   width="58px" ><path fill="rgb( 255, 255, 255 )" d="M29,58 C13.009,58 0,44.991 0,29 C0,13.009 13.009,0 29,0 C44.991,0 58,13.009 58,29 C58,44.991 44.991,58 29,58 ZM29,1.70600000000002 C13.95,1.70600000000002 1.706,13.95 1.706,29 C1.706,44.05 13.95,56.294 29,56.294 C44.05,56.294 56.294,44.05 56.294,29 C56.294,13.95 44.05,1.70600000000002 29,1.70600000000002 ZM30,45 C30,45 28,45 28,45 C28,45 28,30 28,30 C28,30 13,30 13,30 C13,30 13,28 13,28 C13,28 28,28 28,28 C28,28 28,13 28,13 C28,13 30,13 30,13 C30,13 30,28 30,28 C30,28 45,28 45,28 C45,28 45,30 45,30 C45,30 30,30 30,30 C30,30 30,45 30,45 Z "/></svg>