<?xml version="1.0" encoding="utf-8"?>
<!-- Generator: Adobe Illustrator 15.1.0, SVG Export Plug-In . SVG Version: 6.00 Build 0)  -->
<!DOCTYPE svg PUBLIC "-//W3C//DTD SVG 1.0//EN" "http://www.w3.org/TR/2001/REC-SVG-20010904/DTD/svg10.dtd">
<svg version="1.0" id="Layer_1" xmlns="http://www.w3.org/2000/svg" xmlns:xlink="http://www.w3.org/1999/xlink" x="0px" y="0px"
	 width="244.871px" height="284.643px" viewBox="18.001 -2.84 244.871 284.643"
	 enable-background="new 18.001 -2.84 244.871 284.643" xml:space="preserve">
<path d="M216.07,184.766c-0.002-7.176-0.002-14.312-0.002-21.251"/>
<path d="M216.066,118.762c0-14.106,0-23.18,0-23.228c-0.17-27.021-11.262-51.663-29.006-69.369
	c-17.853-17.887-42.75-29.02-70.026-29.006C89.757-2.854,64.858,8.279,47.007,26.166C29.12,44.016,17.987,68.915,18.001,96.194
	h44.386c0.01-15.163,6.081-28.683,16.005-38.644c9.959-9.924,23.479-15.994,38.642-16.007c15.161,0.013,28.68,6.083,38.641,16.007
	c9.753,9.789,15.788,23.019,16.001,37.864c0.004,0.26,0.004,186.388,0.004,186.388h44.389c0-0.076,0-22.771,0-52.282
	L216.066,118.762z"/>
<path d="M171.681,118.763h-46.804v44.753h46.802"/>
<path d="M262.87,118.763h-46.804v44.753h46.802"/>
<path d="M262.872,184.766h-46.804v44.754h46.802"/>
<path d="M171.681,184.762h-46.803v44.754h46.801"/>
</svg>
