<?xml version="1.0" encoding="utf-8"?><!DOCTYPE svg PUBLIC "-//W3C//DTD SVG 1.1//EN" "http://www.w3.org/Graphics/SVG/1.1/DTD/svg11.dtd"><svg version="1.1" baseProfile="full" xmlns="http://www.w3.org/2000/svg" xmlns:xlink="http://www.w3.org/1999/xlink" xmlns:ev="http://www.w3.org/2001/xml-events"   height="42px"   width="59px" ><path fill="rgb( 143, 39, 66 )" d="M53.252,41.3579999999999 C53.252,41.3579999999999 5.54399999999998,41.3579999999999 5.54399999999998,41.3579999999999 C2.53099999999995,41.3579999999999 0.08000000000004,38.9299999999999 0.08000000000004,35.946 C0.08000000000004,35.946 0.08000000000004,5.94000000000005 0.08000000000004,5.94000000000005 C0.08000000000004,2.95500000000004 2.53099999999995,0.52800000000002 5.54399999999998,0.52800000000002 C5.54399999999998,0.52800000000002 53.252,0.52800000000002 53.252,0.52800000000002 C56.265,0.52800000000002 58.716,2.95500000000004 58.716,5.94000000000005 C58.716,5.94000000000005 58.716,35.946 58.716,35.946 C58.716,38.9299999999999 56.265,41.3579999999999 53.252,41.3579999999999 ZM56.221,5.94000000000005 C56.221,4.31899999999996 54.889,3 53.252,3 C53.252,3 5.54399999999998,3 5.54399999999998,3 C3.90700000000004,3 2.57500000000005,4.31899999999996 2.57500000000005,5.94000000000005 C2.57500000000005,5.94000000000005 2.57500000000005,10.482 2.57500000000005,10.482 C2.57500000000005,10.482 56.221,10.482 56.221,10.482 C56.221,10.482 56.221,5.94000000000005 56.221,5.94000000000005 ZM56.221,16.592 C56.221,16.592 2.57500000000005,16.592 2.57500000000005,16.592 C2.57500000000005,16.592 2.57500000000005,35.946 2.57500000000005,35.946 C2.57500000000005,37.567 3.90700000000004,38.886 5.54399999999998,38.886 C5.54399999999998,38.886 53.252,38.886 53.252,38.886 C54.889,38.886 56.221,37.567 56.221,35.946 C56.221,35.946 56.221,16.592 56.221,16.592 ZM17.576,32.728 C17.576,32.728 34.973,32.728 34.973,32.728 C34.973,32.728 34.973,35.1559999999999 34.973,35.1559999999999 C34.973,35.1559999999999 17.576,35.1559999999999 17.576,35.1559999999999 C17.576,35.1559999999999 17.576,32.728 17.576,32.728 ZM5.07000000000005,32.728 C5.07000000000005,32.728 16.292,32.728 16.292,32.728 C16.292,32.728 16.292,35.1559999999999 16.292,35.1559999999999 C16.292,35.1559999999999 5.07000000000005,35.1559999999999 5.07000000000005,35.1559999999999 C5.07000000000005,35.1559999999999 5.07000000000005,32.728 5.07000000000005,32.728 Z "/></svg>