<?xml version="1.0" encoding="utf-8"?><!DOCTYPE svg PUBLIC "-//W3C//DTD SVG 1.1//EN" "http://www.w3.org/Graphics/SVG/1.1/DTD/svg11.dtd"><svg version="1.1" baseProfile="full" xmlns="http://www.w3.org/2000/svg" xmlns:xlink="http://www.w3.org/1999/xlink" xmlns:ev="http://www.w3.org/2001/xml-events"   height="17px"   width="23px" ><path fill="rgb( 26, 242, 138 )" d="M22.494,2.81100000000001 C22.494,2.81100000000001 9.645,15.74 9.645,15.74 C9.619,15.771 9.608,15.81 9.57899999999999,15.839 C9.078,16.34 8.267,16.34 7.767,15.839 C7.767,15.839 1.425,9.49799999999999 1.425,9.49799999999999 C0.925,8.99700000000001 0.925,8.18600000000001 1.425,7.68600000000001 C1.925,7.185 2.736,7.185 3.23699999999999,7.68600000000001 C3.23699999999999,7.68600000000001 8.65300000000001,13.102 8.65300000000001,13.102 C8.65300000000001,13.102 20.682,0.999 20.682,0.999 C21.182,0.499 21.994,0.499 22.494,0.999 C22.994,1.499 22.994,2.31100000000001 22.494,2.81100000000001 Z "/></svg>