<?xml version="1.0" encoding="utf-8"?><!DOCTYPE svg PUBLIC "-//W3C//DTD SVG 1.1//EN" "http://www.w3.org/Graphics/SVG/1.1/DTD/svg11.dtd"><svg version="1.1" baseProfile="full" xmlns="http://www.w3.org/2000/svg" xmlns:xlink="http://www.w3.org/1999/xlink" xmlns:ev="http://www.w3.org/2001/xml-events"   height="58px"   width="58px" ><path fill="rgb( 255, 255, 255 )" d="M29,58 C13.009,58 0,44.991 0,29 C0,13.009 13.009,0 29,0 C44.991,0 58,13.009 58,29 C58,44.991 44.991,58 29,58 ZM29,1.70599999999999 C13.95,1.70599999999999 1.70600000000002,13.95 1.70600000000002,29 C1.70600000000002,44.05 13.95,56.294 29,56.294 C44.05,56.294 56.294,44.05 56.294,29 C56.294,13.95 44.05,1.70599999999999 29,1.70599999999999 ZM39.346,40.994 C39.346,40.994 29,30.647 29,30.647 C29,30.647 18.654,40.994 18.654,40.994 C18.654,40.994 17.006,40.346 17.006,40.346 C17.006,40.346 27.851,29.5 27.851,29.5 C27.851,29.5 17.006,18.654 17.006,18.654 C17.006,18.654 18.654,18.006 18.654,18.006 C18.654,18.006 29,28.353 29,28.353 C29,28.353 39.346,18.006 39.346,18.006 C39.346,18.006 40.994,18.654 40.994,18.654 C40.994,18.654 30.149,29.5 30.149,29.5 C30.149,29.5 40.994,40.346 40.994,40.346 C40.994,40.346 39.346,40.994 39.346,40.994 Z "/></svg>