<?xml version="1.0" encoding="utf-8"?><!DOCTYPE svg PUBLIC "-//W3C//DTD SVG 1.1//EN" "http://www.w3.org/Graphics/SVG/1.1/DTD/svg11.dtd"><svg version="1.1" baseProfile="full" xmlns="http://www.w3.org/2000/svg" xmlns:xlink="http://www.w3.org/1999/xlink" xmlns:ev="http://www.w3.org/2001/xml-events"   height="41px"   width="41px" ><path fill="rgb( 255, 0, 0 )" d="M20.5,41 C9.178,41 0,31.822 0,20.5 C0,9.178 9.178,0 20.5,0 C31.822,0 41,9.178 41,20.5 C41,31.822 31.822,41 20.5,41 ZM20.5,2.56200000000001 C10.609,2.56200000000001 2.56200000000001,10.609 2.56200000000001,20.5 C2.56200000000001,30.391 10.609,38.478 20.5,38.478 C30.391,38.478 38.437,30.391 38.437,20.5 C38.437,10.609 30.391,2.56200000000001 20.5,2.56200000000001 ZM27.748,27.748 C27.247,28.248 26.436,28.248 25.936,27.748 C25.936,27.748 20.5,22.312 20.5,22.312 C20.5,22.312 15.064,27.748 15.064,27.748 C14.564,28.248 13.752,28.248 13.252,27.748 C12.752,27.247 12.752,26.436 13.252,25.936 C13.252,25.936 18.688,20.5 18.688,20.5 C18.688,20.5 13.252,15.064 13.252,15.064 C12.752,14.564 12.752,13.752 13.252,13.252 C13.752,12.752 14.564,12.752 15.064,13.252 C15.064,13.252 20.5,18.688 20.5,18.688 C20.5,18.688 25.936,13.252 25.936,13.252 C26.436,12.752 27.247,12.752 27.748,13.252 C28.248,13.752 28.248,14.564 27.748,15.064 C27.748,15.064 22.312,20.5 22.312,20.5 C22.312,20.5 27.748,25.936 27.748,25.936 C28.248,26.436 28.248,27.247 27.748,27.748 Z "/></svg>