<?xml version="1.0" encoding="utf-8"?>
<!-- Generator: Adobe Illustrator 18.1.0, SVG Export Plug-In . SVG Version: 6.00 Build 0)  -->
<svg version="1.1" id="Слой_1" xmlns="http://www.w3.org/2000/svg" xmlns:xlink="http://www.w3.org/1999/xlink" x="0px" y="0px"
	 viewBox="0 0 52.8 38.3" enable-background="new 0 0 52.8 38.3" xml:space="preserve">
<path fill="#A1A1A1" d="M26.4,6.8c6.7,0,12.5,3.1,16.1,5.7c4.3,3.1,6.5,6,7,7.1c-0.6,1.1-2.8,4.1-7,7.1c-3.6,2.6-9.3,5.7-16.1,5.7
	c-6.8,0-12.5-3.1-16.1-5.7c-4.3-3.1-6.5-6-7-7.1c0.6-1.1,2.8-4.1,7-7.1C13.9,9.9,19.7,6.8,26.4,6.8 M26.4,3.6
	C11.8,3.6,0,16.4,0,19.6s11.8,16,26.4,16c14.6,0,26.4-12.8,26.4-16S41,3.6,26.4,3.6L26.4,3.6z M26.4,10c-5.3,0-9.6,4.3-9.6,9.6
	s4.3,9.6,9.6,9.6c5.3,0,9.6-4.3,9.6-9.6S31.7,10,26.4,10L26.4,10z M28.9,19.8c-1.7,0-3.2-1.4-3.2-3.2c0-1.7,1.4-3.2,3.2-3.2
	c1.7,0,3.2,1.4,3.2,3.2C32,18.4,30.6,19.8,28.9,19.8L28.9,19.8z M28.9,19.8"/>
<rect x="24.7" y="-6.4" transform="matrix(0.7071 -0.7071 0.7071 0.7071 -5.8717 24.1683)" fill="#A1A1A1" width="3" height="51.2"/>
</svg>
