<?xml version="1.0" encoding="utf-8"?>
<!-- Generator: Adobe Illustrator 18.1.0, SVG Export Plug-In . SVG Version: 6.00 Build 0)  -->
<svg version="1.1" id="Слой_1" xmlns="http://www.w3.org/2000/svg" xmlns:xlink="http://www.w3.org/1999/xlink" x="0px" y="0px"
	 viewBox="0 0 52.8 32" enable-background="new 0 0 52.8 32" xml:space="preserve">
<path fill="#A1A1A1" d="M26.4,3.2c6.7,0,12.5,3.1,16.1,5.7c4.3,3.1,6.5,6,7,7.1c-0.6,1.1-2.8,4.1-7,7.1c-3.6,2.6-9.3,5.7-16.1,5.7
	c-6.8,0-12.5-3.1-16.1-5.7c-4.3-3.1-6.5-6-7-7.1c0.6-1.1,2.8-4.1,7-7.1C13.9,6.3,19.7,3.2,26.4,3.2 M26.4,0C11.8,0,0,12.8,0,16
	s11.8,16,26.4,16C41,32,52.8,19.2,52.8,16S41,0,26.4,0L26.4,0z M26.4,6.4c-5.3,0-9.6,4.3-9.6,9.6s4.3,9.6,9.6,9.6
	c5.3,0,9.6-4.3,9.6-9.6S31.7,6.4,26.4,6.4L26.4,6.4z M28.9,16.2c-1.7,0-3.2-1.4-3.2-3.2c0-1.7,1.4-3.2,3.2-3.2
	c1.7,0,3.2,1.4,3.2,3.2C32,14.8,30.6,16.2,28.9,16.2L28.9,16.2z M28.9,16.2"/>
</svg>
