<?xml version="1.0" encoding="utf-8"?><!DOCTYPE svg PUBLIC "-//W3C//DTD SVG 1.1//EN" "http://www.w3.org/Graphics/SVG/1.1/DTD/svg11.dtd"><svg version="1.1" baseProfile="full" xmlns="http://www.w3.org/2000/svg" xmlns:xlink="http://www.w3.org/1999/xlink" xmlns:ev="http://www.w3.org/2001/xml-events"   height="72px"   width="72px" ><path fill="rgb( 255, 255, 255 )" d="M0,72 C0,72 0,0 0,0 C0,0 72,0 72,0 C72,0 72,72 72,72 C72,72 0,72 0,72 ZM70,2 C70,2 2,2 2,2 C2,2 2,70 2,70 C2,70 70,70 70,70 C70,70 70,2 70,2 ZM21.984,32.971 C21.984,32.971 24.55,32.401 24.55,32.401 C24.738,31.805 24.981,31.234 25.255,30.682 C25.255,30.682 23.794,28.247 23.794,28.247 C23.275,27.418 23.013,26.199 23.794,25.418 C23.794,25.418 25.209,24.004 25.209,24.004 C25.989,23.223 27.308,23.363 28.103,23.916 C28.103,23.916 30.411,25.385 30.411,25.385 C31.03,25.059 31.681,24.782 32.358,24.567 C32.358,24.567 33,22 33,22 C33.219,21.047 33.896,20 35,20 C35,20 37,20 37,20 C38.105,20 38.938,21.031 39.109,21.984 C39.109,21.984 39.686,24.582 39.686,24.582 C40.32,24.787 40.931,25.047 41.515,25.35 C41.515,25.35 43.766,23.916 43.766,23.916 C44.562,23.363 45.88,23.223 46.66,24.004 C46.66,24.004 48.075,25.418 48.075,25.418 C48.856,26.199 48.594,27.418 48.075,28.247 C48.075,28.247 46.687,30.56 46.687,30.56 C46.987,31.149 47.249,31.761 47.449,32.401 C47.449,32.401 50.016,32.971 50.016,32.971 C50.969,33.143 52,33.976 52,35.08 C52,35.08 52,37.08 52,37.08 C52,38.185 50.953,38.861 50,39.08 C50,39.08 47.401,39.73 47.401,39.73 C47.207,40.323 46.965,40.895 46.686,41.443 C46.686,41.443 48.075,43.76 48.075,43.76 C48.594,44.588 48.856,45.807 48.075,46.588 C48.075,46.588 46.66,48.002 46.66,48.002 C45.88,48.783 44.562,48.643 43.766,48.091 C43.766,48.091 41.51,46.653 41.51,46.653 C40.933,46.952 40.33,47.208 39.702,47.411 C39.702,47.411 39.125,50.016 39.125,50.016 C38.953,50.969 38.12,52 37.016,52 C37.016,52 35.016,52 35.016,52 C33.911,52 33.234,50.953 33.016,50 C33.016,50 32.376,47.44 32.376,47.44 C31.693,47.225 31.04,46.946 30.416,46.617 C30.416,46.617 28.104,48.091 28.104,48.091 C27.308,48.643 25.989,48.783 25.209,48.002 C25.209,48.002 23.794,46.588 23.794,46.588 C23.014,45.807 23.275,44.588 23.794,43.76 C23.794,43.76 25.257,41.322 25.257,41.322 C25.002,40.81 24.778,40.28 24.599,39.73 C24.599,39.73 22,39.08 22,39.08 C21.047,38.861 20,38.185 20,37.08 C20,37.08 20,35.08 20,35.08 C20,33.976 21.031,33.143 21.984,32.971 ZM22,36.94 C22.087,37.001 22.254,37.087 22.485,37.14 C22.485,37.14 26.157,38.058 26.157,38.058 C26.157,38.058 26.5,39.109 26.5,39.109 C26.64,39.539 26.82,39.973 27.048,40.434 C27.048,40.434 27.535,41.413 27.535,41.413 C27.535,41.413 25.489,44.821 25.489,44.821 C25.38,44.996 25.326,45.167 25.308,45.271 C25.308,45.271 26.62,46.547 26.62,46.547 C26.751,46.547 26.895,46.495 27.029,46.404 C27.029,46.404 30.321,44.306 30.321,44.306 C30.321,44.306 31.35,44.849 31.35,44.849 C31.882,45.13 32.43,45.36 32.979,45.533 C32.979,45.533 34.044,45.871 34.044,45.871 C34.044,45.871 34.965,49.553 34.965,49.553 C35.011,49.755 35.095,49.915 35.156,50 C35.156,50 36.956,50 36.956,50 C37.028,49.942 37.135,49.782 37.173,49.583 C37.173,49.583 37.997,45.86 37.997,45.86 C37.997,45.86 39.087,45.508 39.087,45.508 C39.591,45.345 40.097,45.133 40.59,44.877 C40.59,44.877 41.613,44.348 41.613,44.348 C41.613,44.348 44.905,46.447 44.905,46.447 C44.975,46.495 45.119,46.547 45.246,46.587 C45.246,46.587 46.562,45.273 46.562,45.273 C46.544,45.168 46.485,44.989 46.36,44.789 C46.36,44.789 44.401,41.523 44.401,41.523 C44.401,41.523 44.903,40.536 44.903,40.536 C45.145,40.062 45.346,39.581 45.501,39.107 C45.501,39.107 45.845,38.057 45.845,38.057 C45.845,38.057 49.553,37.131 49.553,37.131 C49.756,37.084 49.916,37 50.001,36.939 C50.001,36.939 50.017,35.164 50.017,35.164 C49.98,35.094 49.806,34.965 49.582,34.923 C49.582,34.923 45.886,34.103 45.886,34.103 C45.886,34.103 45.54,32.999 45.54,32.999 C45.386,32.503 45.178,32.003 44.905,31.47 C44.905,31.47 44.4,30.482 44.4,30.482 C44.4,30.482 46.38,27.186 46.38,27.186 C46.489,27.01 46.544,26.839 46.562,26.735 C46.562,26.735 45.249,25.46 45.249,25.46 C45.119,25.46 44.975,25.511 44.84,25.603 C44.84,25.603 41.616,27.656 41.616,27.656 C41.616,27.656 40.593,27.125 40.593,27.125 C40.094,26.865 39.581,26.65 39.07,26.485 C39.07,26.485 37.981,26.133 37.981,26.133 C37.981,26.133 37.142,22.339 37.142,22.339 C37.115,22.195 36.986,22.021 37,22 C37,22 35.141,22 35.141,22 C35.079,22.087 34.994,22.254 34.94,22.485 C34.94,22.485 34.028,26.134 34.028,26.134 C34.028,26.134 32.965,26.472 32.965,26.472 C32.416,26.647 31.871,26.876 31.343,27.154 C31.343,27.154 30.316,27.696 30.316,27.696 C30.316,27.696 26.962,25.559 26.962,25.559 C26.894,25.511 26.75,25.46 26.623,25.419 C26.623,25.419 25.308,26.733 25.308,26.733 C25.325,26.838 25.383,27.017 25.509,27.218 C25.509,27.218 27.533,30.59 27.533,30.59 C27.533,30.59 27.046,31.57 27.046,31.57 C26.792,32.084 26.6,32.552 26.459,33.001 C26.459,33.001 26.112,34.104 26.112,34.104 C26.112,34.104 22.339,34.939 22.339,34.939 C22.202,34.964 22.038,35.081 22.004,35.081 C22.002,35.081 22.001,35.081 22,35.08 C22,35.08 22,36.94 22,36.94 ZM36.014,29.99 C39.334,29.99 42.037,32.687 42.037,36 C42.037,39.313 39.334,42.009 36.014,42.009 C32.693,42.009 29.99,39.313 29.99,36 C29.99,32.687 32.693,29.99 36.014,29.99 ZM36,40 C38.206,40 40,38.206 40,36 C40,33.794 38.206,32 36,32 C33.794,32 32,33.794 32,36 C32,38.206 33.794,40 36,40 Z "/></svg>