<?xml version="1.0" encoding="utf-8"?><!DOCTYPE svg PUBLIC "-//W3C//DTD SVG 1.1//EN" "http://www.w3.org/Graphics/SVG/1.1/DTD/svg11.dtd"><svg version="1.1" baseProfile="full" xmlns="http://www.w3.org/2000/svg" xmlns:xlink="http://www.w3.org/1999/xlink" xmlns:ev="http://www.w3.org/2001/xml-events"   height="72px"   width="72px" ><path fill="rgb( 255, 255, 255 )" d="M0,72 C0,72 0,0 0,0 C0,0 72,0 72,0 C72,0 72,72 72,72 C72,72 0,72 0,72 ZM70,2 C70,2 2,2 2,2 C2,2 2,70 2,70 C2,70 70,70 70,70 C70,70 70,2 70,2 ZM28.116,35.305 C28.046,34.879 28,34.445 28,34 C28,34 28,28 28,28 C28,23.582 31.582,20 36,20 C40.418,20 44,23.582 44,28 C44,28 44,34 44,34 C44,34.445 43.954,34.879 43.884,35.305 C48.727,37.024 52,40.271 52,44 C52,44 52,51 52,51 C52,51.552 51.552,52 51,52 C51,52 21,52 21,52 C20.448,52 20,51.552 20,51 C20,51 20,46 20,46 C20,46 20,45 20,45 C20,45 20,44 20,44 C20,40.271 23.273,37.024 28.116,35.305 ZM42,28 C42,24.686 39.314,22 36,22 C32.686,22 30,24.686 30,28 C30,28 30,34 30,34 C30,34.246 30.044,34.479 30.072,34.717 C30.218,35.922 30.711,37.008 31.461,37.884 C31.498,37.927 31.531,37.972 31.569,38.014 C31.713,38.173 31.866,38.321 32.026,38.464 C32.124,38.552 32.227,38.634 32.33,38.715 C32.474,38.827 32.613,38.943 32.767,39.042 C33.022,39.207 33.29,39.351 33.569,39.477 C33.675,39.524 33.786,39.559 33.895,39.6 C34.125,39.688 34.362,39.762 34.605,39.821 C34.712,39.846 34.817,39.872 34.927,39.892 C35.276,39.956 35.632,40 36,40 C36.368,40 36.724,39.956 37.073,39.892 C37.183,39.872 37.288,39.846 37.395,39.821 C37.639,39.762 37.875,39.688 38.105,39.6 C38.215,39.559 38.325,39.524 38.431,39.477 C38.71,39.351 38.979,39.207 39.233,39.042 C39.387,38.943 39.526,38.827 39.67,38.715 C39.774,38.634 39.876,38.552 39.974,38.464 C40.135,38.321 40.287,38.173 40.431,38.014 C40.469,37.972 40.502,37.927 40.539,37.884 C41.289,37.008 41.783,35.922 41.928,34.717 C41.956,34.479 42,34.246 42,34 C42,34 42,28 42,28 ZM22,45 C22,45 22,46 22,46 C22,46 22,50 22,50 C22,50 50,50 50,50 C50,50 50,44 50,44 C50,41.12 47.328,38.603 43.333,37.195 C42.099,40.022 39.282,42 36,42 C32.718,42 29.901,40.022 28.668,37.195 C24.672,38.603 22,41.12 22,44 C22,44 22,45 22,45 Z "/></svg>