<?xml version="1.0" encoding="utf-8"?><!DOCTYPE svg PUBLIC "-//W3C//DTD SVG 1.1//EN" "http://www.w3.org/Graphics/SVG/1.1/DTD/svg11.dtd"><svg version="1.1" baseProfile="full" xmlns="http://www.w3.org/2000/svg" xmlns:xlink="http://www.w3.org/1999/xlink" xmlns:ev="http://www.w3.org/2001/xml-events"   height="72px"   width="72px" ><path fill="rgb( 255, 255, 255 )" d="M0,72 C0,72 0,0 0,0 C0,0 72,0 72,0 C72,0 72,72 72,72 C72,72 0,72 0,72 ZM70,2 C70,2 2,2 2,2 C2,2 2,70 2,70 C2,70 70,70 70,70 C70,70 70,2 70,2 ZM25,20 C25,20 47,20 47,20 C47.552,20 48,20.448 48,21 C48,21 48,51 48,51 C48,51.552 47.552,52 47,52 C47,52 25,52 25,52 C24.448,52 24,51.552 24,51 C24,51 24,21 24,21 C24,20.448 24.448,20 25,20 ZM26,50 C26,50 46,50 46,50 C46,50 46,22 46,22 C46,22 26,22 26,22 C26,22 26,50 26,50 ZM37,48 C37,48 35,48 35,48 C34.448,48 34,47.552 34,47 C34,47 34,45 34,45 C34,44.448 34.448,44 35,44 C35,44 37,44 37,44 C37.552,44 38,44.448 38,45 C38,45 38,47 38,47 C38,47.552 37.552,48 37,48 Z "/></svg>