<?xml version="1.0" encoding="utf-8"?><!DOCTYPE svg PUBLIC "-//W3C//DTD SVG 1.1//EN" "http://www.w3.org/Graphics/SVG/1.1/DTD/svg11.dtd"><svg version="1.1" baseProfile="full" xmlns="http://www.w3.org/2000/svg" xmlns:xlink="http://www.w3.org/1999/xlink" xmlns:ev="http://www.w3.org/2001/xml-events"   height="72px"   width="72px" ><path fill="rgb( 255, 255, 255 )" d="M0,72 C0,72 0,0 0,0 C0,0 72,0 72,0 C72,0 72,72 72,72 C72,72 0,72 0,72 ZM70,2 C70,2 2,2 2,2 C2,2 2,70 2,70 C2,70 70,70 70,70 C70,70 70,2 70,2 ZM29,21 C30.304,21 31.403,21.838 31.816,23 C31.816,23 50,23 50,23 C50,23 50,25 50,25 C50,25 31.816,25 31.816,25 C31.403,26.163 30.304,27 29,27 C27.696,27 26.597,26.163 26.184,25 C26.184,25 22,25 22,25 C22,25 22,23 22,23 C22,23 26.184,23 26.184,23 C26.597,21.838 27.696,21 29,21 ZM29,29 C30.304,29 31.403,29.837 31.816,31 C31.816,31 50,31 50,31 C50,31 50,33 50,33 C50,33 31.816,33 31.816,33 C31.403,34.163 30.304,35 29,35 C27.696,35 26.597,34.163 26.184,33 C26.184,33 22,33 22,33 C22,33 22,31 22,31 C22,31 26.184,31 26.184,31 C26.597,29.837 27.696,29 29,29 ZM43,37 C44.304,37 45.403,37.837 45.816,39 C45.816,39 50,39 50,39 C50,39 50,41 50,41 C50,41 45.816,41 45.816,41 C45.403,42.163 44.304,43 43,43 C41.696,43 40.597,42.163 40.184,41 C40.184,41 22,41 22,41 C22,41 22,39 22,39 C22,39 40.184,39 40.184,39 C40.597,37.837 41.696,37 43,37 ZM36,45 C37.304,45 38.403,45.837 38.816,47 C38.816,47 50,47 50,47 C50,47 50,49 50,49 C50,49 38.816,49 38.816,49 C38.403,50.163 37.304,51 36,51 C34.696,51 33.597,50.163 33.184,49 C33.184,49 22,49 22,49 C22,49 22,47 22,47 C22,47 33.184,47 33.184,47 C33.597,45.837 34.696,45 36,45 Z "/></svg>