<?xml version="1.0" encoding="utf-8"?><!DOCTYPE svg PUBLIC "-//W3C//DTD SVG 1.1//EN" "http://www.w3.org/Graphics/SVG/1.1/DTD/svg11.dtd"><svg version="1.1" baseProfile="full" xmlns="http://www.w3.org/2000/svg" xmlns:xlink="http://www.w3.org/1999/xlink" xmlns:ev="http://www.w3.org/2001/xml-events"   height="72px"   width="72px" ><path fill="rgb( 255, 255, 255 )" d="M0,72 C0,72 0,0 0,0 C0,0 72,0 72,0 C72,0 72,72 72,72 C72,72 0,72 0,72 ZM70,2 C70,2 2,2 2,2 C2,2 2,70 2,70 C2,70 70,70 70,70 C70,70 70,2 70,2 ZM32,33 C32,33 18,33 18,33 C18,33 18,19 18,19 C18,19 32,19 32,19 C32,19 32,33 32,33 ZM30,21 C30,21 20,21 20,21 C20,21 20,31 20,31 C20,31 30,31 30,31 C30,31 30,21 30,21 ZM32,53 C32,53 18,53 18,53 C18,53 18,39 18,39 C18,39 32,39 32,39 C32,39 32,53 32,53 ZM54,33 C54,33 40,33 40,33 C40,33 40,19 40,19 C40,19 54,19 54,19 C54,19 54,33 54,33 ZM54,53 C54,53 40,53 40,53 C40,53 40,39 40,39 C40,39 54,39 54,39 C54,39 54,53 54,53 Z "/></svg>