<?xml version="1.0" encoding="utf-8"?><!DOCTYPE svg PUBLIC "-//W3C//DTD SVG 1.1//EN" "http://www.w3.org/Graphics/SVG/1.1/DTD/svg11.dtd"><svg version="1.1" baseProfile="full" xmlns="http://www.w3.org/2000/svg" xmlns:xlink="http://www.w3.org/1999/xlink" xmlns:ev="http://www.w3.org/2001/xml-events"   height="72px"   width="72px" ><path fill="rgb( 255, 255, 255 )" d="M0,72 C0,72 0,0 0,0 C0,0 72,0 72,0 C72,0 72,72 72,72 C72,72 0,72 0,72 ZM70,2 C70,2 2,2 2,2 C2,2 2,70 2,70 C2,70 70,70 70,70 C70,70 70,2 70,2 ZM50,25 C50,25 22,25 22,25 C22,25 22,23 22,23 C22,23 50,23 50,23 C50,23 50,25 50,25 ZM50,33 C50,33 22,33 22,33 C22,33 22,31 22,31 C22,31 50,31 50,31 C50,31 50,33 50,33 ZM50,41 C50,41 22,41 22,41 C22,41 22,39 22,39 C22,39 50,39 50,39 C50,39 50,41 50,41 ZM50,49 C50,49 22,49 22,49 C22,49 22,47 22,47 C22,47 50,47 50,47 C50,47 50,49 50,49 Z "/></svg>