<?xml version="1.0" encoding="utf-8"?><!DOCTYPE svg PUBLIC "-//W3C//DTD SVG 1.1//EN" "http://www.w3.org/Graphics/SVG/1.1/DTD/svg11.dtd"><svg version="1.1" baseProfile="full" xmlns="http://www.w3.org/2000/svg" xmlns:xlink="http://www.w3.org/1999/xlink" xmlns:ev="http://www.w3.org/2001/xml-events"   height="234px"   width="210px" ><path fill="rgb( 255, 255, 255 )" d="M105,233.68 C105,233.68 104.5,233.392 104.5,233.392 C104.5,233.392 0.992,184.957 0.992,184.957 C0.992,184.957 0.992,48.325 0.992,48.325 C0.992,48.325 1.493,48.036 1.493,48.036 C1.493,48.036 105,0.31999999999999 105,0.31999999999999 C105,0.31999999999999 209.008,48.254 209.008,48.254 C209.008,48.254 209.008,184.746 209.008,184.746 C209.008,184.746 208.507,185.035 208.507,185.035 C208.507,185.035 105,233.68 105,233.68 ZM2.998,183.803 C2.998,183.803 105,231.371 105,231.371 C105,231.371 207.002,183.594 207.002,183.594 C207.002,183.594 207.002,49.406 207.002,49.406 C207.002,49.406 105,2.63 105,2.63 C105,2.63 2.998,49.478 2.998,49.478 C2.998,49.478 2.998,183.803 2.998,183.803 Z "/></svg>