<?xml version="1.0" encoding="utf-8"?><!DOCTYPE svg PUBLIC "-//W3C//DTD SVG 1.1//EN" "http://www.w3.org/Graphics/SVG/1.1/DTD/svg11.dtd"><svg version="1.1" baseProfile="full" xmlns="http://www.w3.org/2000/svg" xmlns:xlink="http://www.w3.org/1999/xlink" xmlns:ev="http://www.w3.org/2001/xml-events"   height="223px"   width="210px" ><path opacity="0.702" fill="rgb( 255, 255, 255 )" d="M105.187,2.944 C105.187,2.944 105,2.63 105,2.63 C105,2.63 2.998,39.478 2.998,39.478 C2.998,39.478 2.998,173.803 2.998,173.803 C2.998,173.803 105,220.371 105,220.371 C105,220.371 207.002,173.594 207.002,173.594 C207.002,173.594 206.325,172.459 206.325,172.459 C206.325,172.459 207.649,172.466 207.649,172.466 C207.649,172.466 209.008,174.746 209.008,174.746 C209.008,174.746 208.507,175.035 208.507,175.035 C208.507,175.035 105,222.68 105,222.68 C105,222.68 104.5,222.392 104.5,222.392 C104.5,222.392 0.992,174.957 0.992,174.957 C0.992,174.957 0.992,38.325 0.992,38.325 C0.992,38.325 1.493,38.036 1.493,38.036 C1.493,38.036 105,0.31999999999999 105,0.31999999999999 C105,0.31999999999999 106.526,2.88 106.526,2.88 C106.526,2.88 105.187,2.944 105.187,2.944 Z "/></svg>