<?xml version="1.0" encoding="utf-8"?><!DOCTYPE svg PUBLIC "-//W3C//DTD SVG 1.1//EN" "http://www.w3.org/Graphics/SVG/1.1/DTD/svg11.dtd"><svg version="1.1" baseProfile="full" xmlns="http://www.w3.org/2000/svg" xmlns:xlink="http://www.w3.org/1999/xlink" xmlns:ev="http://www.w3.org/2001/xml-events"   height="42px"   width="42px" ><path fill="rgb( 242, 1, 1 )" d="M21,42 C9.421,42 0,32.579 0,21 C0,9.42100000000005 9.421,0 21,0 C32.579,0 42,9.42100000000005 42,21 C42,32.579 32.579,42 21,42 ZM21,1.99599999999998 C10.521,1.99599999999998 1.996,10.521 1.996,21 C1.996,31.479 10.521,40.004 21,40.004 C31.479,40.004 40.004,31.479 40.004,21 C40.004,10.521 31.479,1.99599999999998 21,1.99599999999998 ZM19.017,27.751 C19.017,27.751 22,27.751 22,27.751 C22,27.751 22,31.025 22,31.025 C22,31.025 19.017,31.025 19.017,31.025 C19.017,31.025 19.017,27.751 19.017,27.751 ZM19.904,25.628 C19.904,25.628 19.232,16.456 19.232,16.456 C19.232,16.456 19.232,9.96699999999998 19.232,9.96699999999998 C19.232,9.96699999999998 21.785,9.96699999999998 21.785,9.96699999999998 C21.785,9.96699999999998 21.785,16.456 21.785,16.456 C21.785,16.456 21.113,25.628 21.113,25.628 C21.113,25.628 19.904,25.628 19.904,25.628 Z "/></svg>