<?xml version="1.0" encoding="utf-8"?><!DOCTYPE svg PUBLIC "-//W3C//DTD SVG 1.1//EN" "http://www.w3.org/Graphics/SVG/1.1/DTD/svg11.dtd"><svg version="1.1" baseProfile="full" xmlns="http://www.w3.org/2000/svg" xmlns:xlink="http://www.w3.org/1999/xlink" xmlns:ev="http://www.w3.org/2001/xml-events"   height="23px"   width="8px" ><path fill="rgb( 255, 255, 255 )" d="M6.667,23 C6.667,23 1.333,23 1.333,23 C0.597,23 0,22.428 0,21.722 C0,21.0170000000001 0.597,20.444 1.333,20.444 C1.333,20.444 2.667,20.444 2.667,20.444 C2.667,20.444 2.667,10.222 2.667,10.222 C2.667,10.222 1.333,10.222 1.333,10.222 C0.597,10.222 0,9.64999999999998 0,8.94399999999996 C0,8.23900000000003 0.597,7.66700000000003 1.333,7.66700000000003 C1.333,7.66700000000003 4,7.66700000000003 4,7.66700000000003 C4.736,7.66700000000003 5.333,8.23900000000003 5.333,8.94399999999996 C5.333,8.95799999999997 5.33,8.971 5.32899999999999,8.98400000000004 C5.33,8.99800000000005 5.333,9.01099999999997 5.333,9.024 C5.333,9.024 5.333,20.444 5.333,20.444 C5.333,20.444 6.667,20.444 6.667,20.444 C7.40300000000001,20.444 8,21.0170000000001 8,21.722 C8,22.428 7.40300000000001,23 6.667,23 ZM4,5.11099999999999 C2.527,5.11099999999999 1.333,3.96699999999998 1.333,2.55499999999995 C1.333,1.14400000000001 2.527,0 4,0 C5.473,0 6.667,1.14400000000001 6.667,2.55499999999995 C6.667,3.96699999999998 5.473,5.11099999999999 4,5.11099999999999 Z "/></svg>