<?xml version="1.0" encoding="utf-8"?><!DOCTYPE svg PUBLIC "-//W3C//DTD SVG 1.1//EN" "http://www.w3.org/Graphics/SVG/1.1/DTD/svg11.dtd"><svg version="1.1" baseProfile="full" xmlns="http://www.w3.org/2000/svg" xmlns:xlink="http://www.w3.org/1999/xlink" xmlns:ev="http://www.w3.org/2001/xml-events"   height="23px"   width="19px" ><path fill="rgb( 255, 255, 255 )" d="M17.973,23 C17.973,23 1.027,23 1.027,23 C1.027,23 0,23 0,23 C0,23 0,21.978 0,21.978 C0,21.978 0,9.20000000000005 0,9.20000000000005 C0,9.20000000000005 0,8.178 0,8.178 C0,8.178 1.027,8.178 1.027,8.178 C1.027,8.178 4.1,8.178 4.1,8.178 C4.1,8.178 4.1,5.83900000000006 4.1,5.83900000000006 C4.1,2.61900000000003 6.363,0 9.73,0 C13.084,0 15.405,2.83500000000004 15.405,6.13300000000004 C15.405,6.13300000000004 15.405,8.178 15.405,8.178 C15.405,8.178 17.973,8.178 17.973,8.178 C17.973,8.178 19,8.178 19,8.178 C19,8.178 19,9.20000000000005 19,9.20000000000005 C19,9.20000000000005 19,21.978 19,21.978 C19,21.978 19,23 19,23 C19,23 17.973,23 17.973,23 ZM14.378,5.62199999999996 C14.378,3.18399999999997 12.313,1.02200000000005 9.757,1.02200000000005 C7.174,1.02200000000005 5.138,3.40700000000004 5.138,5.83900000000006 C5.138,5.83900000000006 5.138,8.178 5.138,8.178 C5.138,8.178 14.378,8.178 14.378,8.178 C14.378,8.178 14.378,5.62199999999996 14.378,5.62199999999996 ZM17.973,9.20000000000005 C17.973,9.20000000000005 1.027,9.20000000000005 1.027,9.20000000000005 C1.027,9.20000000000005 1.027,21.978 1.027,21.978 C1.027,21.978 17.973,21.978 17.973,21.978 C17.973,21.978 17.973,9.20000000000005 17.973,9.20000000000005 ZM9.5,12.2670000000001 C10.351,12.2670000000001 11.041,12.953 11.041,13.8 C11.041,14.366 10.215,14.855 9.757,15.121 C9.757,15.121 9.757,18.9109999999999 9.757,18.9109999999999 C9.757,18.9109999999999 9.243,18.9109999999999 9.243,18.9109999999999 C9.243,18.9109999999999 9.243,15.121 9.243,15.121 C8.785,14.855 7.959,14.366 7.959,13.8 C7.959,12.953 8.649,12.2670000000001 9.5,12.2670000000001 Z "/></svg>