<?xml version="1.0" encoding="utf-8"?><!DOCTYPE svg PUBLIC "-//W3C//DTD SVG 1.1//EN" "http://www.w3.org/Graphics/SVG/1.1/DTD/svg11.dtd"><svg version="1.1" baseProfile="full" xmlns="http://www.w3.org/2000/svg" xmlns:xlink="http://www.w3.org/1999/xlink" xmlns:ev="http://www.w3.org/2001/xml-events"   height="43px"   width="49px" ><path fill="rgb( 255, 255, 255 )" d="M48.817,21.663 C48.817,21.663 48.4589999999999,22.042 48.4589999999999,22.042 C48.4589999999999,22.042 48.455,22.057 48.455,22.057 C48.455,22.057 48.4109999999999,22.093 48.4109999999999,22.093 C48.4109999999999,22.093 40.414,30.558 40.414,30.558 C40.414,30.558 39.6130000000001,29.711 39.6130000000001,29.711 C39.6130000000001,29.711 46.8099999999999,22.093 46.8099999999999,22.093 C46.8099999999999,22.093 22.306,22.093 22.306,22.093 C22.306,22.093 22.306,20.895 22.306,20.895 C22.306,20.895 46.8099999999999,20.895 46.8099999999999,20.895 C46.8099999999999,20.895 39.6130000000001,13.277 39.6130000000001,13.277 C39.6130000000001,13.277 40.414,12.43 40.414,12.43 C40.414,12.43 48.4109999999999,20.895 48.4109999999999,20.895 C48.4109999999999,20.895 48.422,20.933 48.422,20.933 C48.422,20.933 48.4589999999999,20.946 48.4589999999999,20.946 C48.4589999999999,20.946 48.817,21.325 48.817,21.325 C48.817,21.325 48.9930000000001,21.494 48.9930000000001,21.494 C48.9930000000001,21.494 48.817,21.663 48.817,21.663 ZM35.418,12.315 C35.418,12.315 18.917,2.65800000000002 18.917,2.65800000000002 C18.917,2.65800000000002 2.41300000000001,12.315 2.41300000000001,12.315 C2.41300000000001,12.315 2.41300000000001,31.631 2.41300000000001,31.631 C2.41300000000001,31.631 18.917,41.285 18.917,41.285 C18.917,41.285 35.418,31.631 35.418,31.631 C35.418,31.631 35.418,26.274 35.418,26.274 C35.418,26.274 36.851,26.274 36.851,26.274 C36.851,26.274 36.851,32.47 36.851,32.47 C36.851,32.47 18.917,42.964 18.917,42.964 C18.917,42.964 0.98000000000002,32.47 0.98000000000002,32.47 C0.98000000000002,32.47 0.98000000000002,11.476 0.98000000000002,11.476 C0.98000000000002,11.476 18.917,0.97899999999998 18.917,0.97899999999998 C18.917,0.97899999999998 36.851,11.476 36.851,11.476 C36.851,11.476 36.851,17.042 36.851,17.042 C36.851,17.042 35.418,17.042 35.418,17.042 C35.418,17.042 35.418,12.315 35.418,12.315 Z "/></svg>