<?xml version="1.0" encoding="utf-8"?><!DOCTYPE svg PUBLIC "-//W3C//DTD SVG 1.1//EN" "http://www.w3.org/Graphics/SVG/1.1/DTD/svg11.dtd"><svg version="1.1" baseProfile="full" xmlns="http://www.w3.org/2000/svg" xmlns:xlink="http://www.w3.org/1999/xlink" xmlns:ev="http://www.w3.org/2001/xml-events"   height="43px"   width="45px" ><path fill="rgb( 255, 255, 255 )" d="M26.793,42.964 C26.793,42.964 8.61199999999999,32.47 8.61199999999999,32.47 C8.61199999999999,32.47 8.61199999999999,26.274 8.61199999999999,26.274 C8.61199999999999,26.274 10.064,26.274 10.064,26.274 C10.064,26.274 10.064,31.631 10.064,31.631 C10.064,31.631 26.793,41.285 26.793,41.285 C26.793,41.285 43.524,31.631 43.524,31.631 C43.524,31.631 43.524,12.315 43.524,12.315 C43.524,12.315 26.793,2.65799999999999 26.793,2.65799999999999 C26.793,2.65799999999999 10.064,12.315 10.064,12.315 C10.064,12.315 10.064,17.042 10.064,17.042 C10.064,17.042 8.61199999999999,17.042 8.61199999999999,17.042 C8.61199999999999,17.042 8.61199999999999,11.476 8.61199999999999,11.476 C8.61199999999999,11.476 26.793,0.97900000000001 26.793,0.97900000000001 C26.793,0.97900000000001 44.976,11.476 44.976,11.476 C44.976,11.476 44.976,32.47 44.976,32.47 C44.976,32.47 26.793,42.964 26.793,42.964 ZM18.536,13.277 C18.536,13.277 19.347,12.43 19.347,12.43 C19.347,12.43 27.454,20.895 27.454,20.895 C27.454,20.895 27.466,20.933 27.466,20.933 C27.466,20.933 27.504,20.946 27.504,20.946 C27.504,20.946 27.866,21.325 27.866,21.325 C27.866,21.325 28.045,21.494 28.045,21.494 C28.045,21.494 27.866,21.663 27.866,21.663 C27.866,21.663 27.504,22.042 27.504,22.042 C27.504,22.042 27.499,22.057 27.499,22.057 C27.499,22.057 27.454,22.093 27.454,22.093 C27.454,22.093 19.347,30.558 19.347,30.558 C19.347,30.558 18.536,29.711 18.536,29.711 C18.536,29.711 25.832,22.093 25.832,22.093 C25.832,22.093 0.99,22.093 0.99,22.093 C0.99,22.093 0.99,20.895 0.99,20.895 C0.99,20.895 25.832,20.895 25.832,20.895 C25.832,20.895 18.536,13.277 18.536,13.277 Z "/></svg>