<?xml version="1.0" encoding="utf-8"?><!DOCTYPE svg PUBLIC "-//W3C//DTD SVG 1.1//EN" "http://www.w3.org/Graphics/SVG/1.1/DTD/svg11.dtd"><svg version="1.1" baseProfile="full" xmlns="http://www.w3.org/2000/svg" xmlns:xlink="http://www.w3.org/1999/xlink" xmlns:ev="http://www.w3.org/2001/xml-events"   height="59px"   width="59px" ><path fill="rgb( 143, 39, 66 )" d="M49.607,1.40999999999997 C49.607,1.40999999999997 40.572,8.053 40.572,8.053 C40.572,8.053 40.572,17.694 40.572,17.694 C40.572,17.694 34.272,8.69500000000005 34.272,8.69500000000005 C34.272,8.69500000000005 23.042,11.478 23.042,11.478 C23.042,11.478 18.966,18.466 18.966,18.466 C18.966,18.466 18.966,7.86500000000001 18.966,7.86500000000001 C18.966,7.86500000000001 10.237,1.39800000000002 10.237,1.39800000000002 C10.237,1.39800000000002 9.56600000000003,0.90800000000002 9.56600000000003,0.90800000000002 C9.56600000000003,0.90800000000002 0.26199999999994,7.73299999999995 0.26199999999994,7.73299999999995 C0.26199999999994,7.73299999999995 0,7.92600000000004 0,7.92600000000004 C0,7.92600000000004 0,51.121 0,51.121 C0,51.121 6.18299999999999,58.2329999999999 6.18299999999999,58.2329999999999 C6.18299999999999,58.2329999999999 17.671,56.397 17.671,56.397 C17.671,56.397 31.022,33.4349999999999 31.022,33.4349999999999 C31.022,33.4349999999999 47.663,57.4059999999999 47.663,57.4059999999999 C47.663,57.4059999999999 58.638,59 58.638,59 C58.638,59 58.639,8.05200000000002 58.639,8.05200000000002 C58.639,8.05200000000002 49.607,1.40999999999997 49.607,1.40999999999997 ZM10.223,33.453 C10.223,33.453 10.223,3.69600000000003 10.223,3.69600000000003 C10.223,3.69600000000003 17.13,8.76499999999999 17.13,8.76499999999999 C17.13,8.76499999999999 17.13,21.612 17.13,21.612 C17.13,21.612 10.223,33.453 10.223,33.453 ZM48.933,4.149 C48.933,4.149 48.933,29.6369999999999 48.933,29.6369999999999 C48.933,29.6369999999999 42.408,20.316 42.408,20.316 C42.408,20.316 42.408,8.95299999999997 42.408,8.95299999999997 C42.408,8.95299999999997 48.933,4.149 48.933,4.149 ZM56.205,56.867 C56.205,56.867 48.728,55.7430000000001 48.728,55.7430000000001 C48.728,55.7430000000001 31.96,31.821 31.96,31.821 C31.96,31.821 34.904,26.758 34.904,26.758 C34.904,26.758 56.205,56.867 56.205,56.867 ZM24.248,13.037 C24.248,13.037 32.027,11.109 32.027,11.109 C32.027,11.109 6.39200000000005,55.697 6.39200000000005,55.697 C6.39200000000005,55.697 1.83600000000001,50.457 1.83600000000001,50.457 C1.83600000000001,50.457 1.83600000000001,8.827 1.83600000000001,8.827 C1.83600000000001,8.827 8.38699999999994,4.01999999999998 8.38699999999994,4.01999999999998 C8.38699999999994,4.01999999999998 8.38699999999994,40.224 8.38699999999994,40.224 C8.38699999999994,40.224 24.248,13.037 24.248,13.037 ZM8.28399999999999,56.072 C8.28399999999999,56.072 33.955,11.422 33.955,11.422 C33.955,11.422 50.769,35.441 50.769,35.441 C50.769,35.441 50.769,4.51499999999999 50.769,4.51499999999999 C50.769,4.51499999999999 56.803,8.95299999999997 56.803,8.95299999999997 C56.803,8.95299999999997 56.803,54.5549999999999 56.803,54.5549999999999 C56.803,54.5549999999999 34.753,23.385 34.753,23.385 C34.753,23.385 16.511,54.758 16.511,54.758 C16.511,54.758 8.28399999999999,56.072 8.28399999999999,56.072 Z "/></svg>