<?xml version="1.0" encoding="utf-8"?>
<!-- Generator: Adobe Illustrator 18.1.0, SVG Export Plug-In . SVG Version: 6.00 Build 0)  -->
<svg version="1.1" id="Слой_3" xmlns="http://www.w3.org/2000/svg" xmlns:xlink="http://www.w3.org/1999/xlink" x="0px" y="0px"
	 viewBox="0 0 34.8 42.8" enable-background="new 0 0 34.8 42.8" xml:space="preserve">
<path fill="#101418" d="M34.8,35L20.8,14.8L10.1,33.5l-6.6,1.1L0,30.4V4.1L5.4,0v21.2l8.4-14.8l6.4-1.6l9.5,13.8V0.3l5.1,3.8
	C34.8,4.1,34.8,35,34.8,35z M0.3,30.3l3.3,3.9l6.2-1l10.9-19L34.5,34V4.3L30.1,1v18.7L20.1,5.2l-6,1.5l-9,15.7V0.6L0.3,4.2
	C0.3,4.2,0.3,30.3,0.3,30.3z M29.8,0.7V0.3l-5.1,3.8v7.3c0.1,0.1,0.2,0.6,0.3,0.7V4.3l4.5-3.3 M10.7,4L5.4,0l0,0.4l5,3.8v8.3h0.3
	L10.7,4L10.7,4z M20.3,5L20,4.9L3.4,34.3l0.3,0.2L20.3,5z M34.7,34.7L29,33.8L18.3,18.4l0.1,0.5l10.3,15.2l0,0.1l6,0.9L34.7,34.7z
	 M1.1,42.8H0v-2.6h1c0.2,0,0.3,0,0.5,0.1c0.1,0,0.2,0.1,0.3,0.2c0.1,0.1,0.2,0.3,0.2,0.5c0,0.2-0.1,0.4-0.2,0.5c0,0-0.1,0.1-0.1,0.1
	c0,0,0,0-0.1,0c0.2,0,0.3,0.1,0.4,0.2C2,41.7,2.1,41.9,2.1,42c0,0.2-0.1,0.3-0.2,0.5C1.7,42.7,1.5,42.8,1.1,42.8z M0.6,41.2h0.3
	c0.2,0,0.3,0,0.4,0c0.1,0,0.1-0.1,0.1-0.2c0-0.1,0-0.2-0.1-0.2S1,40.7,0.8,40.7H0.6V41.2z M0.6,42.3H1c0.2,0,0.3,0,0.4-0.1
	s0.1-0.1,0.1-0.2c0-0.1,0-0.2-0.1-0.2s-0.2-0.1-0.4-0.1H0.6L0.6,42.3L0.6,42.3z M5.3,40.2v0.5H4.1v0.5h1.2v0.5H4.1v0.5h1.3v0.5H3.5
	v-2.6H5.3z M7.4,40.7c-0.1,0-0.1,0.1-0.1,0.2c0,0.1,0,0.1,0.1,0.2s0.2,0.1,0.5,0.2c0.2,0.1,0.4,0.2,0.6,0.3c0.1,0.1,0.2,0.3,0.2,0.5
	c0,0.2-0.1,0.4-0.3,0.6c-0.2,0.1-0.4,0.2-0.7,0.2c-0.4,0-0.8-0.2-1.1-0.5L7,41.9c0.3,0.2,0.5,0.4,0.8,0.4c0.1,0,0.2,0,0.2-0.1
	c0.1,0,0.1-0.1,0.1-0.2c0-0.1,0-0.1-0.1-0.2c-0.1,0-0.2-0.1-0.4-0.1c-0.3-0.1-0.5-0.2-0.7-0.3c-0.1-0.1-0.2-0.3-0.2-0.5
	c0-0.2,0.1-0.4,0.3-0.6c0.2-0.1,0.4-0.2,0.7-0.2c0.2,0,0.3,0,0.5,0.1c0.2,0.1,0.3,0.1,0.5,0.2l-0.3,0.4c-0.2-0.2-0.5-0.3-0.7-0.3
	C7.6,40.6,7.5,40.7,7.4,40.7z M11.2,40.7v2.1h-0.6v-2.1H9.9v-0.5h2v0.5H11.2z M16,41.7l0.5-1.5h0.6l0.5,1.5l0.5-1.5h0.6l-0.9,2.6
	h-0.4L16.8,41l-0.6,1.8h-0.4l-0.9-2.6h0.6L16,41.7z M21.7,42.8l-0.2-0.6h-1.1l-0.2,0.6h-0.6l1.1-2.6h0.6l1.1,2.6H21.7z M21,41
	l-0.3,0.7h0.7L21,41z M23.6,42.8v-2.6h0.6v2.1h1.1v0.5H23.6z M26.6,42.8v-2.6h0.6v2.1h1.1v0.5H26.6z M31.5,40.2v0.5h-1.3v0.5h1.2
	v0.5h-1.2v0.5h1.3v0.5h-1.9v-2.6H31.5z M34.1,40.7v2.1h-0.6v-2.1h-0.7v-0.5h2v0.5H34.1z M34.8,36.7H0V37h34.8V36.7z"/>
</svg>
