<?xml version="1.0" encoding="utf-8"?><!DOCTYPE svg PUBLIC "-//W3C//DTD SVG 1.1//EN" "http://www.w3.org/Graphics/SVG/1.1/DTD/svg11.dtd"><svg version="1.1" baseProfile="full" xmlns="http://www.w3.org/2000/svg" xmlns:xlink="http://www.w3.org/1999/xlink" xmlns:ev="http://www.w3.org/2001/xml-events"   height="58px"   width="58px" ><path fill="rgb( 143, 39, 66 )" d="M44.4929999999999,57.01 C44.4929999999999,57.01 21.9880000000001,57.01 21.9880000000001,57.01 C21.9880000000001,57.01 8.48199999999997,57.01 8.48199999999997,57.01 C8.48199999999997,57.01 8.48199999999997,43.282 8.48199999999997,43.282 C8.48199999999997,43.282 8.48199999999997,40.992 8.48199999999997,40.992 C8.48199999999997,40.992 8.48199999999997,27.264 8.48199999999997,27.264 C8.48199999999997,27.264 21.9880000000001,27.264 21.9880000000001,27.264 C21.9880000000001,27.264 44.4929999999999,27.264 44.4929999999999,27.264 C44.4929999999999,27.264 57.999,27.264 57.999,27.264 C57.999,27.264 57.999,40.992 57.999,40.992 C57.999,40.992 57.999,43.282 57.999,43.282 C57.999,43.282 57.999,57.01 57.999,57.01 C57.999,57.01 44.4929999999999,57.01 44.4929999999999,57.01 ZM54.395,37.337 C54.395,37.337 52.921,35.842 52.921,35.842 C52.7360000000001,35.876 52.5699999999999,35.956 52.373,35.956 C50.758,35.956 49.45,34.627 49.45,32.982 C49.45,32.782 49.5260000000001,32.616 49.559,32.425 C49.559,32.425 48.0920000000001,30.929 48.0920000000001,30.929 C48.0920000000001,30.929 18.3889999999999,30.929 18.3889999999999,30.929 C18.3889999999999,30.929 16.921,32.425 16.921,32.425 C16.9549999999999,32.616 17.0309999999999,32.782 17.0309999999999,32.982 C17.0309999999999,34.627 15.723,35.956 14.1079999999999,35.956 C13.9110000000001,35.956 13.7339999999999,35.876 13.548,35.842 C13.548,35.842 12.086,37.329 12.086,37.329 C12.086,37.329 12.086,46.937 12.086,46.937 C12.086,46.937 13.5599999999999,48.432 13.5599999999999,48.432 C13.7449999999999,48.397 13.9110000000001,48.3200000000001 14.1079999999999,48.3200000000001 C15.723,48.3200000000001 17.0309999999999,49.65 17.0309999999999,51.2910000000001 C17.0309999999999,51.491 16.9549999999999,51.671 16.921,51.86 C16.921,51.86 18.384,53.347 18.384,53.347 C18.384,53.347 48.0889999999999,53.347 48.0889999999999,53.347 C48.0889999999999,53.347 49.559,51.849 49.559,51.849 C49.5260000000001,51.66 49.45,51.491 49.45,51.2910000000001 C49.45,49.65 50.758,48.3200000000001 52.373,48.3200000000001 C52.5699999999999,48.3200000000001 52.7470000000001,48.397 52.933,48.432 C52.933,48.432 54.395,46.9450000000001 54.395,46.9450000000001 C54.395,46.9450000000001 54.395,37.337 54.395,37.337 ZM47.866,45.103 C46.251,45.103 44.943,43.774 44.943,42.144 C44.943,40.5 46.251,39.173 47.866,39.173 C49.481,39.173 50.789,40.5 50.789,42.144 C50.789,43.774 49.481,45.103 47.866,45.103 ZM33.24,49.95 C28.3630000000001,49.95 24.404,46.453 24.404,42.144 C24.404,37.821 28.3630000000001,34.324 33.24,34.324 C38.1179999999999,34.324 42.077,37.821 42.077,42.144 C42.077,46.453 38.1179999999999,49.95 33.24,49.95 ZM18.615,45.103 C17,45.103 15.692,43.774 15.692,42.144 C15.692,40.5 17,39.173 18.615,39.173 C20.23,39.173 21.527,40.5 21.527,42.144 C21.527,43.774 20.23,45.103 18.615,45.103 ZM41.5699999999999,16.018 C43.1849999999999,16.018 44.4929999999999,17.347 44.4929999999999,18.989 C44.4929999999999,20.6180000000001 43.1849999999999,21.948 41.5699999999999,21.948 C39.9549999999999,21.948 38.6590000000001,20.6180000000001 38.6590000000001,18.989 C38.6590000000001,17.347 39.9549999999999,16.018 41.5699999999999,16.018 ZM36.492,21.814 C36.8330000000001,22.463 37.0329999999999,23.143 37.165,23.835 C37.165,23.835 20.8879999999999,23.835 20.8879999999999,23.835 C21.681,22.0170000000001 23.088,20.361 25.0540000000001,19.277 C29.327,16.898 34.45,18.028 36.492,21.814 ZM48.4369999999999,22.205 C48.614,22.117 48.8,22.0940000000001 48.9770000000001,22.037 C48.9770000000001,22.037 49.559,20.015 49.559,20.015 C49.559,20.015 45.0219999999999,11.583 45.0219999999999,11.583 C45.0219999999999,11.583 43.03,10.991 43.03,10.991 C42.8900000000001,11.125 42.769,11.271 42.6030000000001,11.36 C41.1849999999999,12.152 39.404,11.629 38.636,10.188 C38.538,10.0069999999999 38.5150000000001,9.81899999999996 38.4590000000001,9.63800000000003 C38.4590000000001,9.63800000000003 36.47,9.04700000000003 36.47,9.04700000000003 C36.47,9.04700000000003 10.4169999999999,23.546 10.4169999999999,23.546 C10.4169999999999,23.546 10.327,23.835 10.327,23.835 C10.327,23.835 8.48199999999997,23.835 8.48199999999997,23.835 C6.625,23.835 5.10899999999992,25.376 5.10899999999992,27.264 C5.10899999999992,27.264 5.10899999999992,34.658 5.10899999999992,34.658 C5.10899999999992,34.658 0,25.165 0,25.165 C0,25.165 11.847,18.574 11.847,18.574 C11.847,18.574 31.5809999999999,7.59699999999998 31.5809999999999,7.59699999999998 C31.5809999999999,7.59699999999998 43.4269999999999,0.995 43.4269999999999,0.995 C43.4269999999999,0.995 49.9110000000001,13.035 49.9110000000001,13.035 C49.9110000000001,13.035 55.7339999999999,23.835 55.7339999999999,23.835 C55.7339999999999,23.835 47.1089999999999,23.835 47.1089999999999,23.835 C47.3399999999999,23.178 47.779,22.574 48.4369999999999,22.205 Z "/></svg>