<?xml version="1.0" encoding="utf-8"?><!DOCTYPE svg PUBLIC "-//W3C//DTD SVG 1.1//EN" "http://www.w3.org/Graphics/SVG/1.1/DTD/svg11.dtd"><svg version="1.1" baseProfile="full" xmlns="http://www.w3.org/2000/svg" xmlns:xlink="http://www.w3.org/1999/xlink" xmlns:ev="http://www.w3.org/2001/xml-events"   height="17px"   width="23px" ><path fill="rgb( 60, 29, 69 )" d="M22.494,2.81100000000004 C22.494,2.81100000000004 9.645,15.74 9.645,15.74 C9.619,15.771 9.608,15.8099999999999 9.57899999999999,15.8390000000001 C9.078,16.34 8.267,16.34 7.767,15.8390000000001 C7.767,15.8390000000001 1.425,9.49800000000005 1.425,9.49800000000005 C0.925,8.99699999999996 0.925,8.18600000000004 1.425,7.68600000000004 C1.925,7.18499999999995 2.737,7.18499999999995 3.237,7.68600000000004 C3.237,7.68600000000004 8.653,13.102 8.653,13.102 C8.653,13.102 20.682,0.99900000000002 20.682,0.99900000000002 C21.182,0.49900000000002 21.994,0.49900000000002 22.494,0.99900000000002 C22.994,1.49900000000002 22.994,2.31100000000004 22.494,2.81100000000004 Z "/></svg>