<?xml version="1.0" encoding="utf-8"?><!DOCTYPE svg PUBLIC "-//W3C//DTD SVG 1.1//EN" "http://www.w3.org/Graphics/SVG/1.1/DTD/svg11.dtd"><svg version="1.1" baseProfile="full" xmlns="http://www.w3.org/2000/svg" xmlns:xlink="http://www.w3.org/1999/xlink" xmlns:ev="http://www.w3.org/2001/xml-events"   height="42px"   width="42px" ><path fill="rgb( 255, 255, 255 )" d="M21,42 C9.42099999999999,42 0,32.579 0,21 C0,9.42099999999999 9.42099999999999,0 21,0 C32.579,0 42,9.42099999999999 42,21 C42,32.579 32.579,42 21,42 ZM21,1.99599999999998 C10.521,1.99599999999998 1.99599999999998,10.521 1.99599999999998,21 C1.99599999999998,31.479 10.521,40.004 21,40.004 C31.479,40.004 40.004,31.479 40.004,21 C40.004,10.521 31.479,1.99599999999998 21,1.99599999999998 ZM10.002,20.109 C10.002,20.109 11.61,18.555 11.61,18.555 C11.61,18.555 19.196,25.889 19.196,25.889 C19.196,25.889 30.39,15 30.39,15 C30.39,15 31.998,16.555 31.998,16.555 C31.998,16.555 19.196,28.998 19.196,28.998 C19.196,28.998 10.002,20.109 10.002,20.109 Z "/></svg>