<?xml version="1.0" encoding="utf-8"?><!DOCTYPE svg PUBLIC "-//W3C//DTD SVG 1.1//EN" "http://www.w3.org/Graphics/SVG/1.1/DTD/svg11.dtd"><svg version="1.1" baseProfile="full" xmlns="http://www.w3.org/2000/svg" xmlns:xlink="http://www.w3.org/1999/xlink" xmlns:ev="http://www.w3.org/2001/xml-events"   height="165px"   width="165px" ><path fill="rgb( 255, 255, 255 )" d="M0,165 C0,165 0,0 0,0 C0,0 165,0 165,0 C165,0 165,165 165,165 C165,165 0,165 0,165 ZM163,2 C163,2 2,2 2,2 C2,2 2,163 2,163 C2,163 163,163 163,163 C163,163 163,2 163,2 ZM83,50 C91.837,50 99,57.163 99,66 C99,74.837 91.837,82 83,82 C74.163,82 67,74.837 67,66 C67,57.163 74.163,50 83,50 ZM83,79.5 C90.456,79.5 96.5,73.456 96.5,66 C96.5,58.544 90.456,52.5 83,52.5 C75.544,52.5 69.5,58.544 69.5,66 C69.5,73.456 75.544,79.5 83,79.5 ZM84,99 C84,99 99,99 99,99 C99,99 99,101 99,101 C99,101 84,101 84,101 C84,101 84,106 84,106 C84,106 99,106 99,106 C99,106 99,108 99,108 C99,108 84,108 84,108 C84,108 84,113 84,113 C84,113 99,113 99,113 C99,113 99,115 99,115 C99,115 84,115 84,115 C84,115 82,115 82,115 C82,115 82,113 82,113 C82,113 82,108 82,108 C82,108 82,106 82,106 C82,106 82,101 82,101 C82,101 82,99 82,99 C82,99 82,82 82,82 C82,82 83,82 83,82 C83,82 84,82 84,82 C84,82 84,99 84,99 Z "/></svg>