<?xml version="1.0" encoding="utf-8"?>
<!-- Generator: Adobe Illustrator 18.1.0, SVG Export Plug-In . SVG Version: 6.00 Build 0)  -->
<svg version="1.1" id="Слой_1" xmlns="http://www.w3.org/2000/svg" xmlns:xlink="http://www.w3.org/1999/xlink" x="0px" y="0px"
	 viewBox="0 0 12.3 16.8" enable-background="new 0 0 12.3 16.8" xml:space="preserve">
<path fill="#191919" d="M0,10.5h1.7V12H0v1.9h1.7v2.9h2.2v-2.9h7.6V12H3.9v-1.5h1.9c1.2,0,2.2-0.1,3-0.4c0.8-0.3,1.5-0.7,2-1.3
	c0.4-0.5,0.8-1,1.1-1.7c0.3-0.7,0.4-1.3,0.4-2.1c0-0.9-0.2-1.7-0.5-2.4c-0.4-0.7-0.8-1.2-1.5-1.6C9.8,0.7,9.2,0.4,8.5,0.3
	S6.9,0,5.9,0H1.7v8.6H0V10.5z M9.8,6.5C9.6,6.9,9.4,7.3,9,7.6C8.7,8,8.2,8.3,7.6,8.4C7.1,8.6,6.4,8.6,5.5,8.6H3.9V1.9h1.8
	c0.7,0,1.3,0,1.8,0.1C8,2.2,8.4,2.3,8.8,2.6c0.4,0.3,0.7,0.6,0.9,1C9.9,4,10,4.5,10,5.1C10,5.7,9.9,6.1,9.8,6.5z"/>
</svg>
