<?xml version="1.0" encoding="utf-8"?><!DOCTYPE svg PUBLIC "-//W3C//DTD SVG 1.1//EN" "http://www.w3.org/Graphics/SVG/1.1/DTD/svg11.dtd"><svg version="1.1" baseProfile="full" xmlns="http://www.w3.org/2000/svg" xmlns:xlink="http://www.w3.org/1999/xlink" xmlns:ev="http://www.w3.org/2001/xml-events"   height="33px"   width="33px" ><path fill="rgb( 255, 255, 255 )" d="M31.713,31.713 C31.34,32.086 30.735,32.086 30.362,31.713 C30.362,31.713 23.192,24.543 23.192,24.543 C20.731,26.69 17.522,28 14,28 C6.268,28 0,21.732 0,14 C0,6.268 6.268,0 14,0 C21.732,0 28,6.268 28,14 C28,17.522 26.69,20.731 24.543,23.192 C24.543,23.192 31.713,30.362 31.713,30.362 C32.086,30.735 32.086,31.34 31.713,31.713 ZM14,2 C7.373,2 2,7.37299999999999 2,14 C2,20.627 7.373,26 14,26 C17.068,26 19.858,24.839 21.979,22.945 C21.976,22.696 22.066,22.446 22.256,22.256 C22.446,22.066 22.696,21.976 22.945,21.979 C24.839,19.858 26,17.068 26,14 C26,7.37299999999999 20.627,2 14,2 Z "/></svg>