<?xml version="1.0" encoding="utf-8"?>
<!-- Generator: Adobe Illustrator 18.1.0, SVG Export Plug-In . SVG Version: 6.00 Build 0)  -->
<svg version="1.1" id="Слой_1" xmlns="http://www.w3.org/2000/svg" xmlns:xlink="http://www.w3.org/1999/xlink" x="0px" y="0px"
	 viewBox="0 0 57.2 15.5" enable-background="new 0 0 57.2 15.5" xml:space="preserve">
<g>
	<path d="M7.1,15.8c-1.1,0-2.2-0.2-3.1-0.6c-0.9-0.4-1.6-0.9-2.2-1.6s-1-1.5-1.3-2.4S0,9.2,0,8.1C0,7,0.1,5.9,0.4,4.9
		c0.3-1,0.7-1.8,1.3-2.6C2.4,1.6,3.1,1,4,0.6C4.9,0.2,5.9,0,7.1,0C8,0,8.8,0.1,9.5,0.3c0.8,0.2,1.4,0.5,2,0.9s1,1,1.4,1.6
		c0.4,0.7,0.6,1.4,0.7,2.3h-2.6c-0.2-1-0.6-1.7-1.2-2.2S8.4,2.2,7.3,2.2c-0.9,0-1.6,0.2-2.2,0.5S4,3.5,3.6,4C3.3,4.5,3,5.2,2.9,5.9
		C2.7,6.6,2.6,7.3,2.6,8.1c0,0.7,0.1,1.4,0.2,2c0.2,0.7,0.4,1.3,0.8,1.8C4,12.4,4.5,12.8,5,13.1c0.6,0.3,1.2,0.5,2,0.5
		c1.2,0,2.2-0.3,2.9-1s1.1-1.5,1.3-2.7h2.5c-0.3,1.9-1,3.3-2.1,4.3C10.5,15.3,9,15.8,7.1,15.8z"/>
	<path d="M23,15.8c-1.2,0-2.3-0.2-3.2-0.6c-0.9-0.4-1.7-1-2.3-1.7S16.5,12,16.2,11s-0.5-2-0.5-3.1c0-1.1,0.2-2.1,0.5-3.1
		s0.8-1.8,1.4-2.5c0.6-0.7,1.4-1.3,2.3-1.7C20.8,0.2,21.8,0,23,0c1.2,0,2.2,0.2,3.2,0.6c0.9,0.4,1.7,1,2.3,1.7
		c0.6,0.7,1.1,1.5,1.4,2.5s0.5,2,0.5,3.1c0,1.1-0.2,2.1-0.5,3.1s-0.8,1.8-1.4,2.5s-1.4,1.3-2.3,1.7C25.3,15.6,24.2,15.8,23,15.8z
		 M23,13.6c0.6,0,1.3-0.1,1.8-0.4c0.6-0.3,1.1-0.6,1.5-1.1c0.4-0.5,0.8-1.1,1-1.8c0.2-0.7,0.4-1.5,0.4-2.4c0-0.9-0.1-1.7-0.4-2.4
		c-0.2-0.7-0.6-1.3-1-1.8c-0.4-0.5-0.9-0.9-1.5-1.1c-0.6-0.3-1.2-0.4-1.8-0.4s-1.3,0.1-1.8,0.4c-0.6,0.3-1.1,0.6-1.5,1.1
		c-0.4,0.5-0.8,1.1-1,1.8c-0.2,0.7-0.4,1.5-0.4,2.4c0,0.9,0.1,1.7,0.4,2.4c0.2,0.7,0.6,1.3,1,1.8c0.4,0.5,0.9,0.8,1.5,1.1
		C21.8,13.5,22.4,13.6,23,13.6z"/>
	<path d="M33.3,0.4h3.6l4.6,12.2h0.1l4.6-12.2h3.6v15.1h-2.5v-12l-4.6,12h-2.3l-4.6-12v12h-2.5V0.4z"/>
	<path d="M57.2,12.2v3.2h-3.2v-3.2H57.2z"/>
</g>
</svg>
