<?xml version="1.0" encoding="utf-8"?><!DOCTYPE svg PUBLIC "-//W3C//DTD SVG 1.1//EN" "http://www.w3.org/Graphics/SVG/1.1/DTD/svg11.dtd"><svg version="1.1" baseProfile="full" xmlns="http://www.w3.org/2000/svg" xmlns:xlink="http://www.w3.org/1999/xlink" xmlns:ev="http://www.w3.org/2001/xml-events"   height="40px"   width="32px" ><path fill="rgb( 202, 74, 58 )" d="M29.988,31.992 C29.988,31.992 23.474,31.992 23.474,31.992 C23.427,31.294 23.286,30.624 23.061,29.992 C23.061,29.992 29.988,29.992 29.988,29.992 C29.988,29.992 29.987,28.04 29.987,28.04 C29.987,26.97 29.221,26.841 29.153,26.81 C29.153,26.81 20.45,22.683 20.45,22.683 C19.817,22.392 19.381,21.793 19.299,21.101 C19.217,20.41 19.501,19.725 20.048,19.294 C22.193,17.605 22.993,13.925 22.993,12.001 C22.993,12.001 22.993,7.00399999999999 22.993,7.00399999999999 C22.993,4.869 19.391,2.00800000000001 15.995,2.00800000000001 C12.629,2.00800000000001 8.99200000000002,4.91499999999999 8.99200000000002,7.00399999999999 C8.99200000000002,7.00399999999999 8.99200000000002,12.001 8.99200000000002,12.001 C8.99200000000002,13.954 9.959,17.621 12.037,19.289 C12.577,19.722 12.855,20.405 12.77,21.092 C12.685,21.78 12.251,22.375 11.621,22.665 C11.621,22.665 2.839,26.809 2.839,26.809 C2.601,26.919 2.00400000000002,27.169 2.00400000000002,27.963 C2.00400000000002,27.963 2.00400000000002,29.993 2.00400000000002,29.993 C2.00400000000002,29.993 8.93900000000002,29.992 8.93900000000002,29.992 C8.714,30.625 8.57299999999998,31.294 8.52600000000001,31.992 C8.52600000000001,31.992 2.00200000000001,31.992 2.00200000000001,31.992 C0.899,31.992 0.00400000000002,31.097 0.00400000000002,29.993 C0.00400000000002,29.993 0.00400000000002,26.992 0.00400000000002,26.992 C0.00400000000002,25.883 2.00200000000001,24.993 2.00200000000001,24.993 C2.00200000000001,24.993 10.785,20.848 10.785,20.848 C7.988,18.603 6.99200000000002,14.185 6.99200000000002,12.001 C6.99200000000002,12.001 6.99200000000002,7.00399999999999 6.99200000000002,7.00399999999999 C6.99200000000002,3.69399999999999 11.579,0.00800000000001 15.995,0.00800000000001 C20.411,0.00800000000001 24.993,3.69399999999999 24.993,7.00399999999999 C24.993,7.00399999999999 24.993,12.001 24.993,12.001 C24.993,14.402 24.055,18.685 21.285,20.866 C21.285,20.866 29.988,24.993 29.988,24.993 C29.988,24.993 31.987,25.817 31.987,26.992 C31.987,26.992 31.987,29.993 31.987,29.993 C31.987,31.097 31.093,31.992 29.988,31.992 ZM12.702,25.926 C13.088,25.493 13.562,25.156 14.122,24.916 C14.682,24.676 15.308,24.556 16.002,24.556 C16.628,24.556 17.198,24.646 17.712,24.826 C18.225,25.006 18.668,25.266 19.042,25.606 C19.415,25.946 19.705,26.363 19.912,26.856 C20.118,27.349 20.222,27.916 20.222,28.556 C20.222,28.969 20.172,29.339 20.072,29.666 C19.972,29.993 19.842,30.289 19.682,30.556 C19.522,30.823 19.338,31.069 19.132,31.296 C18.925,31.523 18.715,31.743 18.502,31.956 C18.288,32.156 18.078,32.359 17.872,32.566 C17.665,32.773 17.478,32.993 17.312,33.226 C17.145,33.459 17.012,33.713 16.912,33.986 C16.812,34.259 16.762,34.569 16.762,34.916 C16.762,34.916 16.762,35.696 16.762,35.696 C16.762,35.696 15.062,35.696 15.062,35.696 C15.062,35.696 15.062,34.756 15.062,34.756 C15.088,34.196 15.192,33.719 15.372,33.326 C15.552,32.933 15.772,32.583 16.032,32.276 C16.292,31.969 16.565,31.686 16.852,31.426 C17.138,31.166 17.405,30.893 17.652,30.606 C17.898,30.319 18.095,30.003 18.242,29.656 C18.388,29.309 18.448,28.889 18.422,28.396 C18.368,27.663 18.132,27.089 17.712,26.676 C17.292,26.263 16.722,26.056 16.002,26.056 C15.522,26.056 15.108,26.143 14.762,26.316 C14.415,26.489 14.125,26.723 13.892,27.016 C13.658,27.309 13.488,27.656 13.382,28.056 C13.275,28.456 13.222,28.889 13.222,29.356 C13.222,29.356 11.522,29.356 11.522,29.356 C11.508,28.676 11.605,28.043 11.812,27.456 C12.018,26.869 12.315,26.359 12.702,25.926 ZM17.002,39.176 C17.002,39.176 14.782,39.176 14.782,39.176 C14.782,39.176 14.782,36.956 14.782,36.956 C14.782,36.956 17.002,36.956 17.002,36.956 C17.002,36.956 17.002,39.176 17.002,39.176 Z "/></svg>