<?xml version="1.0" encoding="utf-8"?>
<!-- Generator: Adobe Illustrator 18.1.0, SVG Export Plug-In . SVG Version: 6.00 Build 0)  -->
<svg version="1.1" id="Слой_1" xmlns="http://www.w3.org/2000/svg" xmlns:xlink="http://www.w3.org/1999/xlink" x="0px" y="0px"
	 viewBox="0 0 32 32" enable-background="new 0 0 32 32" xml:space="preserve">
<path fill-rule="evenodd" clip-rule="evenodd" fill="#EB751C" d="M31,32H1c-0.6,0-1-0.4-1-1v-5v-1v-1c0-3.7,3.3-7,8.1-8.7
	C8,14.9,8,14.4,8,14V8c0-4.4,3.6-8,8-8c4.4,0,8,3.6,8,8v6c0,0.4,0,0.9-0.1,1.3c4.8,1.7,8.1,5,8.1,8.7v7C32,31.6,31.6,32,31,32z
	 M22,8c0-3.3-2.7-6-6-6c-3.3,0-6,2.7-6,6v6c0,0.2,0,0.5,0.1,0.7l0,0c0.1,1.2,0.6,2.3,1.4,3.2c0,0,0.1,0.1,0.1,0.1
	c0.1,0.2,0.3,0.3,0.5,0.5c0.1,0.1,0.2,0.2,0.3,0.3c0.1,0.1,0.3,0.2,0.4,0.3c0.3,0.2,0.5,0.3,0.8,0.4c0.1,0,0.2,0.1,0.3,0.1
	c0.2,0.1,0.5,0.2,0.7,0.2c0.1,0,0.2,0.1,0.3,0.1C15.3,20,15.6,20,16,20c0.4,0,0.7,0,1.1-0.1c0.1,0,0.2,0,0.3-0.1
	c0.2-0.1,0.5-0.1,0.7-0.2c0.1,0,0.2-0.1,0.3-0.1c0.3-0.1,0.5-0.3,0.8-0.4c0.2-0.1,0.3-0.2,0.4-0.3c0.1-0.1,0.2-0.2,0.3-0.3
	c0.2-0.1,0.3-0.3,0.5-0.5c0,0,0.1-0.1,0.1-0.1c0.8-0.9,1.2-2,1.4-3.2l0,0c0-0.2,0.1-0.5,0.1-0.7V8z M30,24c0-2.9-2.7-5.4-6.7-6.8
	C22.1,20,19.3,22,16,22c-3.3,0-6.1-2-7.3-4.8C4.7,18.6,2,21.1,2,24v1v1v4h28V24z"/>
</svg>
