<?xml version="1.0" encoding="utf-8"?><!DOCTYPE svg PUBLIC "-//W3C//DTD SVG 1.1//EN" "http://www.w3.org/Graphics/SVG/1.1/DTD/svg11.dtd"><svg version="1.1" baseProfile="full" xmlns="http://www.w3.org/2000/svg" xmlns:xlink="http://www.w3.org/1999/xlink" xmlns:ev="http://www.w3.org/2001/xml-events"   height="39px"   width="32px" ><path fill="rgb( 58, 202, 95 )" d="M29.9880000000001,31.992 C29.9880000000001,31.992 23.474,31.992 23.474,31.992 C23.433,31.371 23.3049999999999,30.777 23.122,30.207 C23.122,30.207 15.901,37.656 15.901,37.656 C15.883,37.678 15.875,37.705 15.855,37.726 C15.511,38.079 14.953,38.079 14.6079999999999,37.726 C14.6079999999999,37.726 10.245,33.253 10.245,33.253 C9.90099999999995,32.9 9.90099999999995,32.328 10.245,31.975 C10.5890000000001,31.622 11.147,31.622 11.492,31.975 C11.492,31.975 15.218,35.795 15.218,35.795 C15.218,35.795 23.495,27.259 23.495,27.259 C23.8390000000001,26.906 24.397,26.906 24.741,27.259 C25.086,27.612 25.086,28.184 24.741,28.537 C24.741,28.537 23.331,29.992 23.331,29.992 C23.331,29.992 29.9880000000001,29.992 29.9880000000001,29.992 C29.9880000000001,29.992 29.987,28.04 29.987,28.04 C29.987,26.97 29.221,26.841 29.153,26.81 C29.153,26.81 20.45,22.683 20.45,22.683 C19.817,22.392 19.381,21.793 19.299,21.101 C19.217,20.41 19.501,19.725 20.048,19.294 C22.193,17.605 22.9930000000001,13.925 22.9930000000001,12.001 C22.9930000000001,12.001 22.9930000000001,7.00399999999999 22.9930000000001,7.00399999999999 C22.9930000000001,4.869 19.391,2.00800000000001 15.995,2.00800000000001 C12.629,2.00800000000001 8.99199999999996,4.91499999999999 8.99199999999996,7.00399999999999 C8.99199999999996,7.00399999999999 8.99199999999996,12.001 8.99199999999996,12.001 C8.99199999999996,13.954 9.95899999999995,17.621 12.037,19.289 C12.577,19.722 12.855,20.405 12.77,21.092 C12.6849999999999,21.78 12.251,22.375 11.621,22.665 C11.621,22.665 2.83900000000006,26.809 2.83900000000006,26.809 C2.601,26.919 2.00400000000002,27.169 2.00400000000002,27.963 C2.00400000000002,27.963 2.00400000000002,29.993 2.00400000000002,29.993 C2.00400000000002,29.993 8.93899999999996,29.992 8.93899999999996,29.992 C8.71400000000006,30.625 8.57299999999998,31.294 8.52599999999995,31.992 C8.52599999999995,31.992 2.00199999999995,31.992 2.00199999999995,31.992 C0.899,31.992 0.00400000000002,31.097 0.00400000000002,29.993 C0.00400000000002,29.993 0.00400000000002,26.992 0.00400000000002,26.992 C0.00400000000002,25.883 2.00199999999995,24.993 2.00199999999995,24.993 C2.00199999999995,24.993 10.785,20.848 10.785,20.848 C7.98800000000006,18.603 6.99199999999996,14.185 6.99199999999996,12.001 C6.99199999999996,12.001 6.99199999999996,7.00399999999999 6.99199999999996,7.00399999999999 C6.99199999999996,3.69399999999999 11.579,0.00800000000001 15.995,0.00800000000001 C20.4109999999999,0.00800000000001 24.9930000000001,3.69399999999999 24.9930000000001,7.00399999999999 C24.9930000000001,7.00399999999999 24.9930000000001,12.001 24.9930000000001,12.001 C24.9930000000001,14.402 24.0549999999999,18.685 21.285,20.866 C21.285,20.866 29.9880000000001,24.993 29.9880000000001,24.993 C29.9880000000001,24.993 31.987,25.817 31.987,26.992 C31.987,26.992 31.987,29.993 31.987,29.993 C31.987,31.097 31.093,31.992 29.9880000000001,31.992 Z "/></svg>