<?xml version="1.0" encoding="utf-8"?><!DOCTYPE svg PUBLIC "-//W3C//DTD SVG 1.1//EN" "http://www.w3.org/Graphics/SVG/1.1/DTD/svg11.dtd"><svg version="1.1" baseProfile="full" xmlns="http://www.w3.org/2000/svg" xmlns:xlink="http://www.w3.org/1999/xlink" xmlns:ev="http://www.w3.org/2001/xml-events"   height="20px"   width="31px" ><path fill="rgb( 238, 104, 60 )" d="M29,20 C29,20 29,0 29,0 C29,0 31,0 31,0 C31,0 31,20 31,20 C31,20 29,20 29,20 ZM25,3 C25,3 27,3 27,3 C27,3 27,16 27,16 C27,16 25,16 25,16 C25,16 25,3 25,3 ZM8,2 C8,2 23,2 23,2 C23,2 23,17 23,17 C23,17 8,17 8,17 C8,17 8,2 8,2 ZM10,15 C10,15 21,15 21,15 C21,15 21,4 21,4 C21,4 10,4 10,4 C10,4 10,15 10,15 ZM4,3 C4,3 6,3 6,3 C6,3 6,16 6,16 C6,16 4,16 4,16 C4,16 4,3 4,3 ZM0,0 C0,0 2,0 2,0 C2,0 2,20 2,20 C2,20 0,20 0,20 C0,20 0,0 0,0 Z "/></svg>