<?xml version="1.0" encoding="utf-8"?><!DOCTYPE svg PUBLIC "-//W3C//DTD SVG 1.1//EN" "http://www.w3.org/Graphics/SVG/1.1/DTD/svg11.dtd"><svg version="1.1" baseProfile="full" xmlns="http://www.w3.org/2000/svg" xmlns:xlink="http://www.w3.org/1999/xlink" xmlns:ev="http://www.w3.org/2001/xml-events"   height="20px"   width="29px" ><path fill="rgb( 255, 255, 255 )" d="M28,19 C28,19 10,19 10,19 C10,19 9,19 9,19 C9,19 9,18 9,18 C9,18 9,18 9,18 C9,18 9,18 9,18 C9,18 9,17 9,17 C9,17 10,17 10,17 C10,17 28,17 28,17 C28,17 29,17 29,17 C29,17 29,19 29,19 C29,19 28,19 28,19 ZM9,10 C9,10 9,10 9,10 C9,10 9,10 9,10 C9,10 9,9 9,9 C9,9 10,9 10,9 C10,9 28,9 28,9 C28,9 29,9 29,9 C29,9 29,11 29,11 C29,11 9,11 9,11 C9,11 9,10 9,10 ZM10,3 C10,3 9,3 9,3 C9,3 9,2 9,2 C9,2 9,2 9,2 C9,2 9,2 9,2 C9,2 9,1 9,1 C9,1 10,1 10,1 C10,1 10,1 10,1 C10,1 28,1 28,1 C28,1 28,1 28,1 C28,1 29,1 29,1 C29,1 29,3 29,3 C29,3 28,3 28,3 C28,3 10,3 10,3 ZM3,20 C3,20 1,20 1,20 C0.44799999999998,20 0,19.552 0,19 C0,19 0,17 0,17 C0,16.448 0.44799999999998,16 1,16 C1,16 3,16 3,16 C3.55200000000002,16 4,16.448 4,17 C4,17 4,19 4,19 C4,19.552 3.55200000000002,20 3,20 ZM3,12 C3,12 1,12 1,12 C0.44799999999998,12 0,11.552 0,11 C0,11 0,9 0,9 C0,8.44800000000001 0.44799999999998,8 1,8 C1,8 3,8 3,8 C3.55200000000002,8 4,8.44800000000001 4,9 C4,9 4,11 4,11 C4,11.552 3.55200000000002,12 3,12 ZM3,4 C3,4 1,4 1,4 C0.44799999999998,4 0,3.55199999999999 0,3 C0,3 0,1 0,1 C0,0.44800000000001 0.44799999999998,0 1,0 C1,0 3,0 3,0 C3.55200000000002,0 4,0.44800000000001 4,1 C4,1 4,3 4,3 C4,3.55199999999999 3.55200000000002,4 3,4 Z "/></svg>