<?xml version="1.0" encoding="utf-8"?><!DOCTYPE svg PUBLIC "-//W3C//DTD SVG 1.1//EN" "http://www.w3.org/Graphics/SVG/1.1/DTD/svg11.dtd"><svg version="1.1" baseProfile="full" xmlns="http://www.w3.org/2000/svg" xmlns:xlink="http://www.w3.org/1999/xlink" xmlns:ev="http://www.w3.org/2001/xml-events"   height="89px"   width="114px" ><path fill="rgb( 255, 255, 255 )" d="M111.149,37.359 C110.05,38.697 85.441,70.066 56.847,70.066 C29.819,70.066 3.87700000000001,38.45 2.78300000000002,37.106 C2.78300000000002,37.106 0.98899999999998,34.953 0.98899999999998,34.953 C0.98899999999998,34.953 2.79199999999997,32.76 2.79199999999997,32.76 C3.89100000000002,31.423 30.029,0.00400000000002 57.034,0.00400000000002 C84.132,0.06200000000001 110.18,31.646 111.275,32.99 C111.275,32.99 113.011,35.177 113.011,35.177 C113.011,35.177 111.149,37.359 111.149,37.359 ZM57.064,7.01999999999998 C37.193,7.01999999999998 16.502,28.03 10.22,34.972 C16.483,41.944 37.02,63.087 56.823,63.129 C78.268,63.129 97.371,42.116 103.652,35.172 C97.388,28.201 76.865,7.06200000000001 57.064,7.01999999999998 ZM58.61,55.912 C53.21,55.912 48.259,53.569 44.45,49.718 C40.641,45.875 38.551,40.612 38.563,35.186 C38.587,24.008 47.656,14.835 58.78,14.835 C69.967,14.861 78.899,24.111 78.877,35.313 C78.853,46.492 69.102,55.912 58.61,55.912 ZM58.806,21.771 C51.506,21.771 45.573,27.725 45.558,35.045 C45.549,38.599 46.919,41.944 49.412,44.462 C51.893,46.968 55.076,48.352 58.589,48.369 C65.568,48.345 71.868,42.405 71.882,35.1 C71.899,27.768 66.095,21.787 58.806,21.771 ZM101.789,57.97 C101.792,57.97 101.856,57.97 101.857,57.97 C102.633,57.97 103.262,58.724 103.277,58.7430000000001 C107.17,63.573 112.958,70.446 112.958,77.165 C112.958,83.582 107.964,89 102.068,89 C95.279,89 91.384,83.582 91.384,77.165 C91.384,70.745 96.719,63.274 100.373,58.7430000000001 C100.389,58.724 101.014,57.97 101.789,57.97 Z "/></svg>