<?xml version="1.0" encoding="utf-8"?>
<!-- Generator: Adobe Illustrator 18.1.0, SVG Export Plug-In . SVG Version: 6.00 Build 0)  -->
<svg version="1.1" id="Слой_1" xmlns="http://www.w3.org/2000/svg" xmlns:xlink="http://www.w3.org/1999/xlink" x="0px" y="0px"
	 viewBox="0 0 70 40" enable-background="new 0 0 70 40" xml:space="preserve">
<rect x="0" y="0" fill="#1F285A" stroke="#F3F2F1" stroke-width="0.25" stroke-miterlimit="10" width="70" height="40"/>
<g id="layer1">
	<g id="g10305">
		<path id="path2268" fill="#F8982D" d="M60.7,21.7c0,7.7-6.3,14-14,14c-7.7,0-14-6.3-14-14c0,0,0,0,0,0c0-7.7,6.3-14,14-14
			C54.5,7.6,60.7,13.9,60.7,21.7C60.7,21.7,60.7,21.7,60.7,21.7z"/>
		<path id="path1350" fill="#CE2026" d="M27.8,7.6c-7.7,0-13.9,6.3-13.9,14c0,7.7,6.3,14,14,14c3.6,0,6.9-1.4,9.4-3.7l0,0h0
			c0.5-0.5,1-1,1.4-1.5h-2.9c-0.4-0.5-0.7-0.9-1-1.4h5c0.3-0.5,0.6-1,0.8-1.5H34c-0.2-0.5-0.4-1-0.6-1.5h7.8
			c0.5-1.4,0.7-2.9,0.7-4.4c0-1-0.1-2-0.3-3H33c0.1-0.5,0.2-1,0.4-1.5h7.8c-0.2-0.5-0.4-1-0.6-1.5H34c0.2-0.5,0.5-1,0.8-1.5h5
			c-0.3-0.5-0.7-1-1.1-1.5h-2.8c0.4-0.5,0.9-1,1.4-1.4C34.8,9,31.5,7.6,27.8,7.6C27.9,7.6,27.8,7.6,27.8,7.6z"/>
		<path id="use9412" fill="#FBB04C" d="M59.3,29c0.1,0,0.2,0,0.2,0.1c0.1,0,0.1,0.1,0.2,0.2c0,0.1,0.1,0.1,0.1,0.2
			c0,0.1,0,0.2-0.1,0.2c0,0.1-0.1,0.1-0.2,0.2c-0.1,0-0.1,0.1-0.2,0.1c-0.1,0-0.2,0-0.2-0.1c-0.1,0-0.1-0.1-0.2-0.2
			c0-0.1-0.1-0.1-0.1-0.2c0-0.1,0-0.2,0.1-0.2c0-0.1,0.1-0.1,0.2-0.2C59.2,29,59.3,29,59.3,29 M59.3,29.1c-0.1,0-0.1,0-0.2,0
			c-0.1,0-0.1,0.1-0.1,0.1c0,0.1-0.1,0.1-0.1,0.2c0,0.1,0,0.1,0,0.2c0,0.1,0.1,0.1,0.1,0.1c0.1,0,0.1,0,0.2,0c0.1,0,0.1,0,0.2,0
			c0.1,0,0.1-0.1,0.1-0.1c0-0.1,0-0.1,0-0.2c0-0.1,0-0.1-0.1-0.2c0-0.1-0.1-0.1-0.1-0.1C59.5,29.1,59.4,29.1,59.3,29.1 M59.1,29.7
			v-0.5h0.2c0.1,0,0.1,0,0.1,0c0,0,0,0,0.1,0c0,0,0,0,0,0.1c0,0,0,0.1,0,0.1c0,0-0.1,0-0.1,0c0,0,0,0,0,0c0,0,0,0.1,0.1,0.1l0.1,0.1
			h-0.1l0-0.1c0-0.1-0.1-0.1-0.1-0.1c0,0,0,0-0.1,0h0L59.1,29.7L59.1,29.7 M59.2,29.4L59.2,29.4c0.1,0,0.2,0,0.2,0c0,0,0,0,0-0.1
			c0,0,0,0,0,0c0,0,0,0,0,0c0,0,0,0-0.1,0h-0.1L59.2,29.4"/>
	</g>
	<g id="g16480">
		<g id="g13802" transform="translate(-13.74405,15.9939)">
			<path id="path13804" fill="#1F285B" d="M46.3,9.7l0.2-1.3c-0.1,0-0.3,0-0.4,0c-0.5,0-0.6-0.3-0.5-0.5l0.5-2.6h0.8L47,4h-0.7
				l0.2-0.9h-1.6c0,0-0.9,4.9-0.9,5.5c0,0.9,0.5,1.3,1.2,1.3C45.7,9.9,46.1,9.7,46.3,9.7z"/>
			<path id="path13806" fill="#1F285B" d="M46.8,7.3c0,2.1,1.4,2.6,2.6,2.6c1.1,0,1.7-0.3,1.7-0.3l0.3-1.4c0,0-0.9,0.4-1.7,0.4
				c-1.6,0-1.3-1.2-1.3-1.2l3.1,0c0,0,0.2-1,0.2-1.4c0-1-0.5-2.2-2.2-2.2C47.9,3.8,46.8,5.5,46.8,7.3z M49.4,5.2
				c0.8,0,0.7,0.9,0.7,1h-1.7C48.4,6.1,48.6,5.2,49.4,5.2z"/>
			<path id="path13808" fill="#1F285B" d="M58.8,9.7l0.3-1.6c0,0-0.7,0.4-1.2,0.4c-1.1,0-1.5-0.8-1.5-1.7C56.4,5,57.3,4,58.3,4
				c0.8,0,1.4,0.4,1.4,0.4l0.2-1.6c0,0-0.7-0.5-1.5-0.5c-2.3,0-3.7,1.6-3.7,4.4c0,1.9,1,3.1,2.8,3.1C58,9.9,58.8,9.7,58.8,9.7z"/>
			<path id="path13810" fill="#1F285B" d="M38.1,3.9c-1,0-1.8,0.3-1.8,0.3l-0.2,1.3c0,0,0.6-0.3,1.6-0.3c0.6,0,1,0.1,1,0.5
				c0,0.3,0,0.4,0,0.4s-0.4,0-0.6,0c-1.5,0-2.6,0.6-2.6,2.2c0,1.3,0.9,1.6,1.4,1.6c1.1,0,1.5-0.7,1.5-0.7l0,0.6h1.3l0.6-4.1
				C40.1,3.9,38.6,3.9,38.1,3.9z M38.3,7.2c0,0.3-0.1,1.4-1,1.4c-0.5,0-0.6-0.4-0.6-0.6c0-0.4,0.2-0.9,1.3-0.9
				C38.3,7.2,38.3,7.2,38.3,7.2z"/>
			<path id="path13812" fill="#1F285B" d="M41.5,9.9c0.3,0,2.3,0.1,2.3-1.9c0-1.9-1.8-1.5-1.8-2.2c0-0.4,0.3-0.5,0.8-0.5
				c0.2,0,1,0.1,1,0.1L44,4c0,0-0.5-0.1-1.4-0.1c-1.1,0-2.2,0.4-2.2,2c0,1.7,1.9,1.5,1.9,2.3c0,0.5-0.5,0.5-0.9,0.5
				c-0.7,0-1.3-0.2-1.3-0.2l-0.2,1.3C39.9,9.7,40.3,9.9,41.5,9.9z"/>
			<path id="path13814" fill="#1F285B" d="M71.2,2.7l-0.3,2c0,0-0.6-0.8-1.4-0.8c-1.7,0-2.5,1.7-2.5,3.5c0,1.2,0.6,2.4,1.9,2.4
				c0.9,0,1.4-0.6,1.4-0.6l-0.1,0.5h1.5l1.1-7.1L71.2,2.7z M70.5,6.6c0,0.8-0.4,1.8-1.2,1.8c-0.5,0-0.8-0.5-0.8-1.2
				c0-1.2,0.5-1.9,1.2-1.9C70.3,5.3,70.5,5.7,70.5,6.6z"/>
			<path id="path13816" fill="#1F285B" d="M30,9.8l0.9-5.4L31,9.8h1L34,4.4l-0.9,5.4h1.5l1.2-7.1l-2.4,0L32,7l0-4.3h-2.2l-1.2,7.1
				L30,9.8L30,9.8z"/>
			<path id="path13818" fill="#1F285B" d="M53,9.8c0.4-2.5,0.6-4.4,1.9-4c0.2-1,0.6-1.8,0.8-2.2c0,0-0.1-0.1-0.5-0.1
				c-0.7,0-1.6,1.4-1.6,1.4L53.8,4h-1.4l-0.9,5.8L53,9.8L53,9.8z"/>
			<g id="use14699" transform="translate(845.3001,0)">
				<path id="path13810_1_" fill="#1F285B" d="M-783.3,3.9c-1,0-1.8,0.3-1.8,0.3l-0.2,1.3c0,0,0.6-0.3,1.6-0.3c0.6,0,1,0.1,1,0.5
					c0,0.3,0,0.4,0,0.4s-0.4,0-0.6,0c-1.5,0-2.6,0.6-2.6,2.2c0,1.3,0.9,1.6,1.4,1.6c1.1,0,1.5-0.7,1.5-0.7l0,0.6h1.3l0.6-4.1
					C-781.3,3.9-782.8,3.9-783.3,3.9z M-783.1,7.2c0,0.3-0.1,1.4-1,1.4c-0.5,0-0.6-0.4-0.6-0.6c0-0.4,0.2-0.9,1.3-0.9
					C-783.1,7.2-783.1,7.2-783.1,7.2z"/>
			</g>
			<path id="use14701" fill="#1F285B" d="M65.5,9.8c0.2-1.8,0.7-4.4,1.9-4c0.2-1,0-1-0.4-1c-0.7,0-0.8,0-0.8,0L66.3,4h-1.4L64,9.8
				L65.5,9.8L65.5,9.8z"/>
		</g>
		<g id="g10289">
			<path id="path4157" fill="$whiteFFF" d="M32.9,25.2l0.2-1.3c-0.1,0-0.3,0-0.4,0c-0.5,0-0.6-0.3-0.5-0.5l0.4-2.6h0.8l0.2-1.4h-0.7
				l0.2-0.9h-1.5c0,0-0.9,4.9-0.9,5.5c0,0.9,0.5,1.3,1.2,1.3C32.4,25.4,32.8,25.3,32.9,25.2z"/>
			<path id="path4155" fill="$whiteFFF" d="M33.4,22.8c0,2.1,1.4,2.6,2.6,2.6c1.1,0,1.6-0.2,1.6-0.2l0.3-1.4c0,0-0.8,0.4-1.6,0.4
				c-1.6,0-1.3-1.2-1.3-1.2h3c0,0,0.2-1,0.2-1.4c0-1-0.5-2.2-2.1-2.2C34.5,19.4,33.4,21,33.4,22.8z M36,20.7c0.8,0,0.7,0.9,0.7,1
				h-1.7C35.1,21.6,35.2,20.7,36,20.7z"/>
			<path id="path4151" fill="$whiteFFF" d="M45.5,25.2l0.3-1.6c0,0-0.7,0.4-1.2,0.4c-1.1,0-1.5-0.8-1.5-1.7c0-1.8,0.9-2.7,1.9-2.7
				c0.8,0,1.4,0.4,1.4,0.4l0.2-1.6c0,0-0.9-0.4-1.7-0.4c-1.7,0-3.4,1.5-3.4,4.3c0,1.9,0.9,3.1,2.7,3.1
				C44.7,25.4,45.5,25.2,45.5,25.2z"/>
			<path id="path4149" fill="$whiteFFF" d="M24.7,19.4c-1,0-1.8,0.3-1.8,0.3L22.7,21c0,0,0.6-0.3,1.6-0.3c0.6,0,1,0.1,1,0.5
				c0,0.3,0,0.4,0,0.4s-0.4,0-0.6,0c-1.3,0-2.6,0.6-2.6,2.2c0,1.3,0.9,1.6,1.4,1.6c1.1,0,1.5-0.7,1.5-0.7l0,0.6h1.3l0.6-4.1
				C26.8,19.5,25.3,19.4,24.7,19.4z M25,22.7c0,0.3-0.2,1.4-1.1,1.4c-0.5,0-0.6-0.4-0.6-0.6c0-0.4,0.2-0.9,1.3-0.9
				C25,22.7,25,22.7,25,22.7z"/>
			<path id="path4145" fill="$whiteFFF" d="M28.2,25.4c0.3,0,2.3,0.1,2.3-1.9c0-1.9-1.8-1.5-1.8-2.2c0-0.4,0.3-0.5,0.8-0.5
				c0.2,0,1,0.1,1,0.1l0.2-1.3c0,0-0.5-0.1-1.4-0.1c-1.1,0-2.2,0.4-2.2,2c0,1.7,1.9,1.5,1.9,2.3c0,0.5-0.5,0.5-0.9,0.5
				c-0.7,0-1.3-0.2-1.3-0.2l-0.2,1.3C26.5,25.2,26.9,25.4,28.2,25.4z"/>
			<path id="path4139" fill="$whiteFFF" d="M57.9,18.2l-0.3,2c0,0-0.6-0.8-1.4-0.8c-1.4,0-2.5,1.7-2.5,3.5c0,1.2,0.6,2.4,1.9,2.4
				c0.9,0,1.4-0.6,1.4-0.6l-0.1,0.5h1.5l1.1-7.1L57.9,18.2z M57.2,22.1c0,0.8-0.4,1.8-1.2,1.8c-0.5,0-0.8-0.5-0.8-1.2
				c0-1.2,0.5-1.9,1.2-1.9C56.9,20.9,57.2,21.2,57.2,22.1z"/>
			<path id="path4133" fill="$whiteFFF" d="M16.6,25.3l0.9-5.4l0.1,5.4h1l1.9-5.4l-0.9,5.4h1.5l1.2-7.1h-2.4l-1.5,4.4l-0.1-4.4h-2.2
				l-1.2,7.1L16.6,25.3z"/>
			<path id="path4131" fill="$whiteFFF" d="M39.7,25.3c0.4-2.5,0.5-4.5,1.6-4.1c0.2-1,0.4-1.3,0.6-1.7c0,0-0.1,0-0.3,0
				c-0.7,0-1.2,0.9-1.2,0.9l0.1-0.8h-1.4l-0.9,5.8H39.7z"/>
			<g id="use8523" transform="translate(847.0062,0)">
				<path id="path4149_1_" fill="$whiteFFF" d="M-798.1,19.4c-1,0-1.8,0.3-1.8,0.3l-0.2,1.3c0,0,0.6-0.3,1.6-0.3c0.6,0,1,0.1,1,0.5
					c0,0.3,0,0.4,0,0.4s-0.4,0-0.6,0c-1.3,0-2.6,0.6-2.6,2.2c0,1.3,0.9,1.6,1.4,1.6c1.1,0,1.5-0.7,1.5-0.7l0,0.6c0,0,1.3,0,1.3,0
					l0.6-4.1C-796,19.5-797.5,19.4-798.1,19.4z M-797.7,22.7c0,0.3-0.2,1.4-1.1,1.4c-0.5,0-0.6-0.4-0.6-0.6c0-0.4,0.2-0.9,1.3-0.9
					C-797.8,22.7-797.8,22.7-797.7,22.7z"/>
			</g>
			<g id="use8525" transform="translate(442.2857,0)">
				<path id="path4131_1_" fill="$whiteFFF" d="M-390.1,25.3c0.4-2.5,0.5-4.5,1.6-4.1c0.2-1,0.4-1.3,0.6-1.7c0,0-0.1,0-0.3,0
					c-0.7,0-1.2,0.9-1.2,0.9l0.1-0.8h-1.4l-0.9,5.8H-390.1z"/>
			</g>
			<path id="text9407" fill="$whiteFFF" d="M59.3,24.4c0.1,0,0.2,0,0.2,0.1c0.1,0,0.1,0.1,0.2,0.2c0,0.1,0.1,0.1,0.1,0.2
				c0,0.1,0,0.2-0.1,0.2c0,0.1-0.1,0.1-0.2,0.2c-0.1,0-0.1,0.1-0.2,0.1c-0.1,0-0.2,0-0.2-0.1c-0.1,0-0.1-0.1-0.2-0.2
				c0-0.1-0.1-0.1-0.1-0.2c0-0.1,0-0.2,0.1-0.2c0-0.1,0.1-0.1,0.2-0.2C59.2,24.5,59.3,24.4,59.3,24.4 M59.3,24.5c-0.1,0-0.1,0-0.2,0
				c-0.1,0-0.1,0.1-0.1,0.1c0,0.1-0.1,0.1-0.1,0.2s0,0.1,0,0.2c0,0.1,0.1,0.1,0.1,0.1c0.1,0,0.1,0,0.2,0c0.1,0,0.1,0,0.2,0
				c0.1,0,0.1-0.1,0.1-0.1c0-0.1,0-0.1,0-0.2s0-0.1-0.1-0.2c0-0.1-0.1-0.1-0.1-0.1C59.5,24.5,59.4,24.5,59.3,24.5 M59.1,25.1v-0.5
				h0.2c0.1,0,0.1,0,0.1,0c0,0,0,0,0.1,0c0,0,0,0,0,0.1c0,0,0,0.1,0,0.1c0,0-0.1,0-0.1,0c0,0,0,0,0,0c0,0,0,0.1,0.1,0.1l0.1,0.1
				h-0.1l0-0.1c0-0.1-0.1-0.1-0.1-0.1c0,0,0,0-0.1,0h0L59.1,25.1L59.1,25.1 M59.2,24.9L59.2,24.9c0.1,0,0.2,0,0.2,0c0,0,0,0,0-0.1
				c0,0,0,0,0,0c0,0,0,0,0,0c0,0,0,0-0.1,0h-0.1L59.2,24.9"/>
		</g>
	</g>
</g>
<path opacity="0.13" fill="$whiteFFF" d="M70,0H0v17.3c9.1,2.1,21,3.4,33.9,3.4c14,0,26.7-1.5,36.1-3.9V0z"/>
</svg>
